<svg width="33" height="33" viewBox="0 0 33 33" fill="none" xmlns="http://www.w3.org/2000/svg">
<circle cx="15.2869" cy="17.8123" r="14.8952" fill="#D75304" stroke="#0D0D0D" stroke-width="0.285396"/>
<circle cx="16.6961" cy="15.9993" r="14.8952" fill="#FFDF0D" stroke="#0D0D0D" stroke-width="0.285396"/>
<mask id="mask0_319_1051" style="mask-type:alpha" maskUnits="userSpaceOnUse" x="1" y="1" width="31" height="30">
<circle cx="16.697" cy="15.9996" r="14.7645" transform="rotate(22.3651 16.697 15.9996)" fill="white"/>
</mask>
<g mask="url(#mask0_319_1051)">
<rect x="17.3467" y="-0.619568" width="11.4409" height="30.6513" transform="rotate(22.3651 17.3467 -0.619568)" fill="white"/>
</g>
<circle cx="16.6963" cy="15.9992" r="10.1962" stroke="#0D0D0D" stroke-width="0.285396"/>
<path d="M12.4812 22.3695L10.9053 15.5246L13.5257 14.9213C14.0203 14.8074 14.4494 14.7908 14.8128 14.8713C15.178 14.9492 15.4727 15.103 15.6969 15.333C15.9233 15.5624 16.0755 15.8464 16.1535 16.1851C16.2176 16.4637 16.219 16.7144 16.1577 16.9373C16.0959 17.158 15.9889 17.3504 15.8366 17.5145C15.6844 17.6786 15.503 17.8131 15.2925 17.9178L15.3079 17.9847C15.5538 17.9421 15.8038 17.9632 16.0579 18.0478C16.3138 18.1297 16.5412 18.2767 16.7402 18.489C16.9393 18.7013 17.0788 18.9812 17.1588 19.3288C17.2404 19.6831 17.228 20.0215 17.1215 20.3439C17.0146 20.6642 16.8072 20.9454 16.4993 21.1876C16.1913 21.4297 15.7756 21.6111 15.2519 21.7316L12.4812 22.3695ZM13.4827 21.048L14.8162 20.7409C15.2663 20.6373 15.5708 20.4769 15.7296 20.2597C15.8901 20.0397 15.9391 19.7938 15.8765 19.522C15.8298 19.3192 15.7376 19.148 15.5999 19.0085C15.4616 18.8667 15.2893 18.7703 15.0828 18.7193C14.8758 18.666 14.6442 18.6689 14.388 18.7279L13.021 19.0426L13.4827 21.048ZM12.8155 18.1502L14.0421 17.8678C14.256 17.8186 14.4398 17.7352 14.5934 17.6177C14.7465 17.498 14.8554 17.3545 14.9201 17.1871C14.9865 17.0169 14.9966 16.8316 14.9505 16.631C14.8894 16.3659 14.7456 16.1691 14.5189 16.0406C14.2945 15.9116 13.9995 15.8892 13.6341 15.9733L12.3808 16.2618L12.8155 18.1502ZM20.9092 20.5348C20.3945 20.6533 19.9254 20.6487 19.5018 20.5209C19.0799 20.3905 18.7234 20.1511 18.432 19.8029C18.1402 19.4525 17.9324 19.0087 17.8088 18.4718C17.6872 17.9437 17.6808 17.4571 17.7895 17.0121C17.8999 16.5644 18.1111 16.1873 18.423 15.8808C18.7344 15.5722 19.1352 15.3614 19.6253 15.2486C19.9418 15.1757 20.2521 15.1582 20.5565 15.1961C20.8625 15.2312 21.148 15.3297 21.4129 15.4916C21.68 15.653 21.9136 15.8831 22.1138 16.182C22.3135 16.4785 22.4651 16.8519 22.5687 17.302L22.6541 17.673L18.4462 18.6417L18.2585 17.8262L21.3066 17.1245C21.251 16.8933 21.1535 16.6987 21.0139 16.5408C20.8738 16.3806 20.7036 16.2685 20.5035 16.2043C20.3056 16.1396 20.0908 16.1339 19.8591 16.1872C19.6117 16.2442 19.4083 16.3543 19.2489 16.5178C19.0889 16.6789 18.9789 16.8685 18.9188 17.0865C18.8604 17.3017 18.8565 17.5243 18.9071 17.7543L19.071 18.4662C19.1397 18.7648 19.2533 19.0085 19.4118 19.1972C19.5697 19.3838 19.7597 19.5113 19.982 19.5798C20.2037 19.6461 20.446 19.6489 20.709 19.5884C20.885 19.5479 21.0387 19.4867 21.17 19.4048C21.3008 19.3208 21.4073 19.2176 21.4894 19.0955C21.5716 18.9733 21.6227 18.8337 21.6428 18.6766L22.8018 18.5435C22.7992 18.8585 22.7233 19.1505 22.5741 19.4194C22.4265 19.6857 22.212 19.9157 21.9305 20.1096C21.6485 20.3012 21.3081 20.4429 20.9092 20.5348Z" fill="#D75304"/>
<path d="M12.4812 22.3695L12.3636 22.3966L12.3907 22.5143L12.5083 22.4872L12.4812 22.3695ZM10.9053 15.5246L10.8782 15.4069L10.7606 15.434L10.7877 15.5517L10.9053 15.5246ZM14.8128 14.8713L14.7867 14.9892L14.7876 14.9894L14.8128 14.8713ZM15.6969 15.333L15.6104 15.4173L15.611 15.4178L15.6969 15.333ZM16.1577 16.9373L16.274 16.9699L16.2742 16.9693L16.1577 16.9373ZM15.8366 17.5145L15.7481 17.4324L15.7481 17.4324L15.8366 17.5145ZM15.2925 17.9178L15.2387 17.8097L15.1535 17.8522L15.1748 17.9449L15.2925 17.9178ZM15.3079 17.9847L15.1902 18.0118L15.2158 18.1231L15.3284 18.1036L15.3079 17.9847ZM16.0579 18.0478L16.0198 18.1623L16.0211 18.1628L16.0579 18.0478ZM16.7402 18.489L16.6522 18.5716L16.6522 18.5716L16.7402 18.489ZM17.1215 20.3439L17.236 20.3822L17.2362 20.3818L17.1215 20.3439ZM13.4827 21.048L13.365 21.075L13.3921 21.1927L13.5097 21.1656L13.4827 21.048ZM15.7296 20.2597L15.827 20.3309L15.8271 20.3308L15.7296 20.2597ZM15.5999 19.0085L15.5134 19.0927L15.5139 19.0933L15.5999 19.0085ZM15.0828 18.7193L15.0527 18.8362L15.0539 18.8365L15.0828 18.7193ZM13.021 19.0426L12.9939 18.925L12.8762 18.952L12.9033 19.0697L13.021 19.0426ZM12.8155 18.1502L12.6979 18.1773L12.725 18.295L12.8426 18.2679L12.8155 18.1502ZM14.5934 17.6177L14.6668 17.7136L14.6678 17.7128L14.5934 17.6177ZM14.9201 17.1871L14.8076 17.1432L14.8075 17.1435L14.9201 17.1871ZM14.5189 16.0406L14.4587 16.1453L14.4594 16.1456L14.5189 16.0406ZM12.3808 16.2618L12.3537 16.1442L12.236 16.1713L12.2631 16.2889L12.3808 16.2618ZM12.5989 22.3425L11.023 15.4975L10.7877 15.5517L12.3636 22.3966L12.5989 22.3425ZM10.9324 15.6422L13.5527 15.039L13.4986 14.8037L10.8782 15.4069L10.9324 15.6422ZM13.5527 15.039C14.0359 14.9277 14.4459 14.9137 14.7867 14.9892L14.8389 14.7535C14.4528 14.6679 14.0047 14.6871 13.4986 14.8037L13.5527 15.039ZM14.7876 14.9894C15.1334 15.0631 15.4054 15.207 15.6104 15.4173L15.7833 15.2487C15.5399 14.9991 15.2226 14.8352 14.838 14.7533L14.7876 14.9894ZM15.611 15.4178C15.8205 15.63 15.9625 15.8936 16.0359 16.2122L16.2712 16.158C16.1886 15.7993 16.0262 15.4948 15.7828 15.2482L15.611 15.4178ZM16.0359 16.2122C16.0965 16.4758 16.0962 16.7057 16.0413 16.9053L16.2742 16.9693C16.3419 16.7231 16.3387 16.4515 16.2712 16.158L16.0359 16.2122ZM16.0415 16.9047C15.9847 17.1074 15.887 17.2827 15.7481 17.4324L15.9251 17.5966C16.0908 17.4181 16.2071 17.2086 16.274 16.9699L16.0415 16.9047ZM15.7481 17.4324C15.6063 17.5853 15.4368 17.7111 15.2387 17.8097L15.3463 18.0259C15.5691 17.915 15.7625 17.7719 15.9251 17.5966L15.7481 17.4324ZM15.1748 17.9449L15.1902 18.0118L15.4255 17.9576L15.4101 17.8907L15.1748 17.9449ZM15.3284 18.1036C15.5533 18.0647 15.7832 18.0835 16.0198 18.1623L16.0961 17.9332C15.8245 17.8428 15.5543 17.8195 15.2873 17.8657L15.3284 18.1036ZM16.0211 18.1628C16.2558 18.2379 16.466 18.373 16.6522 18.5716L16.8283 18.4064C16.6164 18.1805 16.3718 18.0215 16.0947 17.9328L16.0211 18.1628ZM16.6522 18.5716C16.8336 18.7651 16.9649 19.0244 17.0412 19.3559L17.2765 19.3017C17.1927 18.938 17.0449 18.6374 16.8283 18.4064L16.6522 18.5716ZM17.0412 19.3559C17.1181 19.6902 17.1059 20.0061 17.0069 20.3061L17.2362 20.3818C17.35 20.0368 17.3626 19.6759 17.2765 19.3017L17.0412 19.3559ZM17.007 20.3057C16.9087 20.6002 16.717 20.8627 16.4246 21.0927L16.5739 21.2825C16.8973 21.0281 17.1205 20.7282 17.236 20.3822L17.007 20.3057ZM16.4246 21.0927C16.1349 21.3206 15.7372 21.496 15.2249 21.614L15.279 21.8493C15.8139 21.7261 16.2478 21.5389 16.5739 21.2825L16.4246 21.0927ZM15.2249 21.614L12.4541 22.2519L12.5083 22.4872L15.279 21.8493L15.2249 21.614ZM13.5097 21.1656L14.8433 20.8586L14.7891 20.6233L13.4556 20.9303L13.5097 21.1656ZM14.8433 20.8586C15.3031 20.7527 15.6425 20.5833 15.827 20.3309L15.6321 20.1884C15.499 20.3705 15.2295 20.5219 14.7891 20.6233L14.8433 20.8586ZM15.8271 20.3308C16.0088 20.0818 16.0643 19.7999 15.9941 19.4949L15.7588 19.5491C15.8138 19.7877 15.7714 19.9976 15.632 20.1885L15.8271 20.3308ZM15.9941 19.4949C15.9427 19.2717 15.8402 19.0802 15.6858 18.9237L15.5139 19.0933C15.635 19.2159 15.7168 19.3667 15.7588 19.5491L15.9941 19.4949ZM15.6863 18.9242C15.5312 18.7651 15.3384 18.658 15.1118 18.602L15.0539 18.8365C15.2402 18.8825 15.3921 18.9683 15.5134 19.0927L15.6863 18.9242ZM15.1129 18.6023C14.8833 18.5433 14.6317 18.5479 14.3609 18.6102L14.415 18.8455C14.6567 18.7899 14.8683 18.7887 15.0527 18.8362L15.1129 18.6023ZM14.3609 18.6102L12.9939 18.925L13.0481 19.1603L14.415 18.8455L14.3609 18.6102ZM12.9033 19.0697L13.365 21.075L13.6003 21.0209L13.1386 19.0155L12.9033 19.0697ZM12.8426 18.2679L14.0692 17.9855L14.015 17.7502L12.7884 18.0326L12.8426 18.2679ZM14.0692 17.9855C14.2976 17.9329 14.4977 17.8429 14.6667 17.7136L14.5201 17.5218C14.3819 17.6275 14.2144 17.7043 14.015 17.7502L14.0692 17.9855ZM14.6678 17.7128C14.8366 17.5808 14.9595 17.42 15.0327 17.2306L14.8075 17.1435C14.7513 17.2889 14.6564 17.4152 14.519 17.5226L14.6678 17.7128ZM15.0326 17.2309C15.1089 17.0354 15.119 16.825 15.0681 16.6039L14.8328 16.6581C14.8743 16.8381 14.8641 16.9984 14.8076 17.1432L15.0326 17.2309ZM15.0681 16.6039C14.9999 16.3075 14.836 16.0815 14.5784 15.9356L14.4594 16.1456C14.6551 16.2566 14.779 16.4243 14.8328 16.6581L15.0681 16.6039ZM14.5791 15.9359C14.3184 15.7861 13.9889 15.7677 13.607 15.8556L13.6612 16.0909C14.0101 16.0106 14.2705 16.0371 14.4587 16.1453L14.5791 15.9359ZM13.607 15.8556L12.3537 16.1442L12.4078 16.3795L13.6612 16.0909L13.607 15.8556ZM12.2631 16.2889L12.6979 18.1773L12.9332 18.1231L12.4984 16.2348L12.2631 16.2889ZM19.5018 20.5209L19.4661 20.6363L19.467 20.6365L19.5018 20.5209ZM18.432 19.8029L18.3392 19.8802L18.3394 19.8804L18.432 19.8029ZM17.7895 17.0121L17.6723 16.9832L17.6722 16.9835L17.7895 17.0121ZM18.423 15.8808L18.5076 15.967L18.508 15.9666L18.423 15.8808ZM20.5565 15.1961L20.5416 15.3159L20.5427 15.316L20.5565 15.1961ZM21.4129 15.4916L21.3499 15.5946L21.3504 15.595L21.4129 15.4916ZM22.1138 16.182L22.0135 16.2492L22.0136 16.2494L22.1138 16.182ZM22.6541 17.673L22.6812 17.7906L22.7989 17.7635L22.7718 17.6459L22.6541 17.673ZM18.4462 18.6417L18.3286 18.6688L18.3557 18.7865L18.4733 18.7594L18.4462 18.6417ZM18.2585 17.8262L18.2314 17.7086L18.1138 17.7357L18.1408 17.8533L18.2585 17.8262ZM21.3066 17.1245L21.3337 17.2421L21.4525 17.2148L21.424 17.0963L21.3066 17.1245ZM21.0139 16.5408L20.923 16.6203L20.9234 16.6207L21.0139 16.5408ZM20.5035 16.2043L20.466 16.319L20.4666 16.3192L20.5035 16.2043ZM19.2489 16.5178L19.3346 16.6028L19.3353 16.6021L19.2489 16.5178ZM18.9188 17.0865L18.8024 17.0544L18.8022 17.0549L18.9188 17.0865ZM18.9071 17.7543L18.7892 17.7803L18.7895 17.7814L18.9071 17.7543ZM19.4118 19.1972L19.3193 19.2749L19.3196 19.2752L19.4118 19.1972ZM19.982 19.5798L19.9464 19.6952L19.9474 19.6955L19.982 19.5798ZM21.17 19.4048L21.2338 19.5073L21.2353 19.5064L21.17 19.4048ZM21.6428 18.6766L21.6291 18.5566L21.5351 18.5674L21.5231 18.6612L21.6428 18.6766ZM22.8018 18.5435L22.9225 18.5445L22.9236 18.408L22.788 18.4235L22.8018 18.5435ZM22.5741 19.4194L22.4685 19.3609L22.4685 19.3609L22.5741 19.4194ZM21.9305 20.1096L21.9984 20.2094L21.999 20.209L21.9305 20.1096ZM20.8822 20.4171C20.384 20.5318 19.9366 20.5259 19.5367 20.4053L19.467 20.6365C19.9142 20.7714 20.4051 20.7747 20.9363 20.6524L20.8822 20.4171ZM19.5375 20.4056C19.1385 20.2822 18.8015 20.0563 18.5246 19.7254L18.3394 19.8804C18.6452 20.2459 19.0214 20.4987 19.4661 20.6363L19.5375 20.4056ZM18.5248 19.7256C18.2473 19.3925 18.0467 18.967 17.9264 18.4447L17.6912 18.4988C17.8182 19.0505 18.033 19.5124 18.3392 19.8802L18.5248 19.7256ZM17.9264 18.4447C17.8083 17.9316 17.8033 17.4644 17.9068 17.0408L17.6722 16.9835C17.5583 17.4498 17.5661 17.9557 17.6912 18.4988L17.9264 18.4447ZM17.9067 17.041C18.0121 16.6138 18.2125 16.2568 18.5076 15.967L18.3384 15.7947C18.0096 16.1177 17.7878 16.515 17.6723 16.9832L17.9067 17.041ZM18.508 15.9666C18.8012 15.676 19.1808 15.4748 19.6524 15.3662L19.5983 15.1309C19.0895 15.2481 18.6676 15.4684 18.338 15.7951L18.508 15.9666ZM19.6524 15.3662C19.9559 15.2963 20.252 15.2799 20.5416 15.3159L20.5714 15.0763C20.2522 15.0366 19.9276 15.0551 19.5983 15.1309L19.6524 15.3662ZM20.5427 15.316C20.8312 15.3491 21.0999 15.4418 21.3499 15.5946L21.4758 15.3886C21.1961 15.2176 20.8939 15.1133 20.5702 15.0761L20.5427 15.316ZM21.3504 15.595C21.6003 15.7459 21.8216 15.9628 22.0135 16.2492L22.2141 16.1148C22.0056 15.8035 21.7596 15.5601 21.4753 15.3883L21.3504 15.595ZM22.0136 16.2494C22.203 16.5307 22.3499 16.8894 22.4511 17.3291L22.6864 17.2749C22.5804 16.8144 22.4239 16.4264 22.2139 16.1145L22.0136 16.2494ZM22.4511 17.3291L22.5365 17.7001L22.7718 17.6459L22.6864 17.2749L22.4511 17.3291ZM22.6271 17.5553L18.4192 18.5241L18.4733 18.7594L22.6812 17.7906L22.6271 17.5553ZM18.5639 18.6147L18.3761 17.7991L18.1408 17.8533L18.3286 18.6688L18.5639 18.6147ZM18.2856 17.9439L21.3337 17.2421L21.2795 17.0068L18.2314 17.7086L18.2856 17.9439ZM21.424 17.0963C21.3644 16.8483 21.2586 16.6353 21.1043 16.4608L20.9234 16.6207C21.0483 16.762 21.1377 16.9382 21.1892 17.1527L21.424 17.0963ZM21.1047 16.4613C20.9504 16.2849 20.7617 16.1603 20.5404 16.0893L20.4666 16.3192C20.6456 16.3766 20.7972 16.4764 20.923 16.6203L21.1047 16.4613ZM20.541 16.0895C20.3194 16.0171 20.082 16.012 19.832 16.0696L19.8861 16.3049C20.0996 16.2557 20.2918 16.2621 20.466 16.319L20.541 16.0895ZM19.832 16.0696C19.5647 16.1311 19.3399 16.2517 19.1625 16.4334L19.3353 16.6021C19.4768 16.457 19.6588 16.3572 19.8861 16.3049L19.832 16.0696ZM19.1632 16.4327C18.9887 16.6086 18.868 16.8163 18.8024 17.0544L19.0351 17.1186C19.0897 16.9207 19.1891 16.7493 19.3346 16.6028L19.1632 16.4327ZM18.8022 17.0549C18.7385 17.2899 18.7346 17.5323 18.7892 17.7803L19.025 17.7284C18.9783 17.5163 18.9823 17.3135 19.0353 17.1181L18.8022 17.0549ZM18.7895 17.7814L18.9534 18.4933L19.1886 18.4391L19.0247 17.7272L18.7895 17.7814ZM18.9534 18.4933C19.0254 18.8061 19.146 19.0683 19.3193 19.2749L19.5042 19.1196C19.3607 18.9486 19.2541 18.7236 19.1886 18.4391L18.9534 18.4933ZM19.3196 19.2752C19.4916 19.4785 19.701 19.6195 19.9464 19.6952L20.0175 19.4644C19.8185 19.4031 19.6477 19.2891 19.5039 19.1192L19.3196 19.2752ZM19.9474 19.6955C20.1923 19.7686 20.4562 19.7705 20.736 19.706L20.6819 19.4708C20.4359 19.5274 20.2151 19.5235 20.0166 19.4641L19.9474 19.6955ZM20.736 19.706C20.923 19.663 21.0895 19.5973 21.2338 19.5073L21.1061 19.3024C20.9879 19.3761 20.847 19.4327 20.6819 19.4708L20.736 19.706ZM21.2353 19.5064C21.3791 19.4139 21.4977 19.2994 21.5896 19.1629L21.3892 19.0281C21.3168 19.1359 21.2225 19.2276 21.1047 19.3033L21.2353 19.5064ZM21.5896 19.1629C21.683 19.024 21.7403 18.8662 21.7626 18.6919L21.5231 18.6612C21.5052 18.8012 21.4601 18.9227 21.3892 19.0281L21.5896 19.1629ZM21.6566 18.7965L22.8155 18.6634L22.788 18.4235L21.6291 18.5566L21.6566 18.7965ZM22.681 18.5425C22.6786 18.8378 22.6077 19.1099 22.4685 19.3609L22.6796 19.478C22.8389 19.191 22.9198 18.8791 22.9225 18.5445L22.681 18.5425ZM22.4685 19.3609C22.3311 19.6089 22.1301 19.8256 21.8621 20.0102L21.999 20.209C22.294 20.0059 22.522 19.7624 22.6797 19.4779L22.4685 19.3609ZM21.8627 20.0097C21.5952 20.1915 21.2693 20.328 20.8822 20.4171L20.9363 20.6524C21.3469 20.5579 21.7018 20.411 21.9984 20.2094L21.8627 20.0097Z" fill="black"/>
<path d="M9.5625 13.0154L11.1933 10.9397L20.9783 8.86414L19.3475 11.4586L9.5625 13.0154Z" fill="#D75304" stroke="black" stroke-width="0.10378"/>
</svg>
