<svg width="393" height="393" viewBox="0 0 393 393" fill="none" xmlns="http://www.w3.org/2000/svg">
<g clip-path="url(#clip0_211_11341)">
<mask id="mask0_211_11341" style="mask-type:luminance" maskUnits="userSpaceOnUse" x="0" y="0" width="393" height="393">
<path d="M393 0H0V393H393V0Z" fill="white"/>
</mask>
<g mask="url(#mask0_211_11341)">
<path d="M370.536 178.644C370.536 178.644 369.276 148.526 319.124 127.547C268.97 106.568 255.279 93.2135 253.843 92.5954C252.408 91.9783 248.965 93.4297 250.01 97.2822C251.056 101.134 252.603 104.467 252.603 104.467C252.603 104.467 234.637 96.8165 220.856 85.0212C220.856 85.0212 216.275 81.1832 214.986 85.6095C213.697 90.0367 214.847 104.967 231.78 123.907C231.78 123.907 207.601 112.695 202.461 107.787C202.461 107.787 196.922 104.211 192.601 111.575C192.601 111.575 190.667 115.37 195.215 123.479C199.762 131.588 213.194 151.959 231.381 162.778L218.786 159.368C218.786 159.368 213.124 159.362 214.344 165.752C215.563 172.141 223.908 182.337 228.054 184.95C232.2 187.563 248.036 194.267 248.036 194.267L252.721 196.67C252.721 196.67 246.695 197.135 244.656 198.954C242.618 200.772 243.002 203.853 248.594 208.987C254.186 214.121 260.248 215.074 260.248 215.074L271.275 217.257C271.275 217.257 267.738 218.408 269.464 222.032C271.188 225.658 280.787 232.286 297.111 232.672C313.433 233.058 323.66 229.937 323.66 229.937C323.66 229.937 349.293 223.809 364.885 204.094C364.885 204.094 373.446 192.286 370.536 178.644Z" fill="white"/>
<path d="M265.425 101.047C265.425 101.047 259.475 99.8531 262.209 106.281C262.209 106.281 268.747 119.971 283.02 133.665L294.081 144.858C294.081 144.858 261.604 124.727 252.214 103.657C252.214 103.657 247.102 93.6577 252.815 92.9469C252.815 92.9469 253.767 92.8284 255.908 94.4957C258.049 96.163 265.425 101.047 265.425 101.047Z" fill="#E7E7E7"/>
<path d="M231.095 93.2322C231.095 93.2322 230.49 111.678 241.788 124.775C253.086 137.873 255.109 138.588 255.109 138.588L251.301 139.062C251.301 139.062 235.479 128.461 230.959 123.222C226.714 118.301 213.973 99.937 215.011 86.1875C215.157 84.2577 217.183 83.0398 218.938 83.8559C219.708 84.2136 220.562 84.7987 221.46 85.7292C224.79 89.1823 231.095 93.2322 231.095 93.2322Z" fill="#E7E7E7"/>
<path d="M210.376 113.214C210.376 113.214 205.379 111.902 203.948 115.947C202.518 119.993 208.582 129.874 208.582 129.874C208.582 129.874 220.591 148.684 235.816 162.259L246.641 171.548C246.641 171.548 216.897 157.846 204.65 137.131C204.65 137.131 191.926 120.344 192.049 113.561C192.172 106.777 200.859 106.663 201.93 107.497C203.001 108.33 210.376 113.214 210.376 113.214Z" fill="#E7E7E7"/>
<path d="M229.152 163.089C229.152 163.089 229.508 165.945 231.886 169.517C234.264 173.088 241.991 188.564 255.79 198.449L236.159 188.322C236.159 188.322 223.308 186.054 216.533 170.46C216.533 170.46 211.777 163.317 217.134 159.75L230.104 162.97L229.152 163.089Z" fill="#E7E7E7"/>
<path d="M251.863 197.971C251.863 197.971 251.622 203.802 254.834 206.303C258.045 208.804 278.747 219.764 278.747 219.764L269.703 217.022C269.703 217.022 258.875 215.469 253.64 212.253C248.406 209.037 242.934 203.916 243.531 200.941C244.128 197.967 251.863 197.971 251.863 197.971Z" fill="#E7E7E7"/>
<path d="M285.999 231.431C285.999 231.431 327.884 241.69 362.178 206.482C362.178 206.482 373.489 196.373 370.049 176.497C370.049 176.497 372.897 191.613 361.116 190.178C349.335 188.743 345.412 180.529 345.412 180.529C345.412 180.529 321.017 178.73 311.86 167.301C302.702 155.871 313.887 160.28 313.887 160.28C313.887 160.28 308.297 154.208 296.393 159.556C296.393 159.556 293.774 161.816 297.104 165.269C300.434 168.722 311.614 180.867 326.488 183.851C326.488 183.851 332.793 187.901 330.174 190.16C327.555 192.42 320.411 197.176 300.544 185.145C300.544 185.145 310.772 197.409 326.717 201.226C326.717 201.226 331.354 207.417 322.544 214.315C313.733 221.212 292.664 230.602 285.999 231.431Z" fill="#E7E7E7"/>
<path d="M262.011 139.663C262.011 139.663 257.369 141.207 257.961 145.968C258.554 150.728 268.782 162.992 268.782 162.992C268.782 162.992 248.199 152.984 247.369 146.319C246.54 139.654 254.276 139.658 262.011 139.663Z" fill="#E7E7E7"/>
<path d="M274.253 168.112C274.253 168.112 265.087 172.154 268.891 179.415C272.695 186.677 283.638 196.918 283.638 196.918C283.638 196.918 256.035 184.882 252.828 174.646C249.62 164.409 274.253 168.112 274.253 168.112Z" fill="#E7E7E7"/>
<path d="M294.695 215.846C294.695 215.846 278.991 206.198 278.518 202.389C278.044 198.581 281.734 197.155 281.734 197.155C281.734 197.155 272.094 197.387 269.711 201.551C267.329 205.715 284.937 215.127 294.695 215.846Z" fill="#E7E7E7"/>
<path d="M369.861 178.73C369.522 175.372 368.506 172.127 367.15 169.025C366.857 168.231 366.439 167.489 366.072 166.728C365.678 165.978 365.358 165.19 364.901 164.474L363.597 162.29C363.373 161.929 363.173 161.555 362.932 161.206L362.195 160.168C358.321 154.591 353.551 149.652 348.272 145.347C346.958 144.265 345.547 143.3 344.19 142.271L342.136 140.748L339.976 139.376L335.649 136.643C334.172 135.791 332.648 135.016 331.149 134.198L328.893 132.986C328.144 132.575 327.39 132.174 326.602 131.84L321.934 129.723C318.845 128.285 315.653 126.963 312.494 125.604C299.854 120.162 287.389 114.27 275.345 107.555C269.338 104.178 263.429 100.594 257.813 96.5483C257.107 96.0492 256.418 95.5258 255.724 95.0098C255.047 94.5004 254.324 93.9338 253.714 93.5002C253.367 93.1673 252.683 93.2795 252.074 93.5331C251.476 93.8231 250.997 94.311 250.778 94.93C250.539 95.5418 250.549 96.2754 250.727 97.0113C250.909 97.8143 251.141 98.6431 251.381 99.4515C251.878 101.069 252.412 102.697 253.009 104.28L253.031 104.339C253.116 104.564 253.002 104.815 252.778 104.9C252.659 104.945 252.532 104.934 252.428 104.881L252.422 104.878C248.998 103.511 245.736 101.836 242.475 100.151C239.227 98.4422 236.035 96.6213 232.915 94.6794C229.806 92.7226 226.761 90.6505 223.85 88.3925C223.108 87.8466 222.401 87.2568 221.688 86.6746L220.618 85.8012C220.423 85.6426 220.289 85.5288 220.119 85.4089C219.951 85.2857 219.774 85.1674 219.596 85.0592C218.889 84.6163 218.102 84.2907 217.419 84.2519C216.755 84.2504 216.305 84.5327 215.964 85.2006C215.37 86.5982 215.311 88.4794 215.411 90.215C215.525 91.9818 215.792 93.7576 216.227 95.497C217.058 98.9884 218.375 102.369 219.942 105.623C220.7 107.265 221.614 108.831 222.499 110.41C223.458 111.948 224.388 113.506 225.448 114.981C227.463 118.004 229.77 120.823 232.114 123.608L232.127 123.624C232.285 123.813 232.261 124.095 232.073 124.253C231.935 124.369 231.745 124.387 231.591 124.313L231.584 124.309C226.461 122.056 221.396 119.683 216.401 117.148C213.907 115.872 211.422 114.576 208.972 113.195C207.753 112.491 206.541 111.776 205.351 111C204.157 110.237 202.99 109.402 201.864 108.414L201.991 108.515C201.465 108.205 200.71 107.956 200.031 107.862C199.334 107.769 198.626 107.787 197.955 107.972C196.605 108.332 195.425 109.27 194.489 110.442C194.238 110.723 194.024 111.03 193.828 111.352L193.521 111.824L193.443 111.942L193.405 112.001C193.387 112.031 193.421 111.969 193.409 111.992C193.386 112.044 193.362 112.117 193.337 112.193C193.148 112.82 193.077 113.573 193.101 114.315C193.152 115.813 193.514 117.343 194.035 118.817C195.083 121.768 196.799 124.529 198.502 127.292C200.225 130.037 202.037 132.732 203.964 135.342C207.779 140.589 211.952 145.585 216.525 150.184C221.119 154.753 226.097 158.97 231.609 162.394L231.622 162.402C231.831 162.532 231.896 162.807 231.765 163.017C231.658 163.191 231.451 163.265 231.263 163.211L231.258 163.21L218.669 159.801L218.785 159.817L218.78 159.817C217.761 159.937 216.726 160.368 216.017 161.015C215.327 161.695 214.956 162.61 214.898 163.632C214.846 164.657 215.075 165.723 215.348 166.765C215.689 167.806 216.093 168.839 216.601 169.839C218.621 173.843 221.375 177.539 224.444 180.848C225.215 181.676 226.027 182.456 226.865 183.19C227.706 183.93 228.584 184.514 229.583 185.061C231.564 186.151 233.634 187.145 235.701 188.125C239.848 190.069 244.036 191.954 248.233 193.802L248.244 193.808L248.266 193.818L252.926 196.272L252.933 196.276C253.151 196.391 253.234 196.661 253.119 196.88C253.045 197.021 252.905 197.106 252.756 197.117L252.754 197.117C250.922 197.29 249.06 197.586 247.317 198.126C246.457 198.403 245.596 198.754 244.967 199.278C244.332 199.839 243.951 200.588 243.982 201.415C243.98 202.241 244.34 203.083 244.77 203.861C245.213 204.644 245.781 205.369 246.368 206.075C247.581 207.461 248.936 208.762 250.379 209.906C253.279 212.172 256.703 213.877 260.281 214.626L271.359 216.817L271.362 216.819C271.605 216.866 271.762 217.102 271.715 217.344C271.683 217.502 271.573 217.624 271.432 217.676L271.414 217.683C270.844 217.894 270.259 218.299 269.899 218.789C269.526 219.283 269.397 219.899 269.477 220.525C269.651 221.816 270.498 222.966 271.514 223.929C273.573 225.859 276.1 227.306 278.725 228.441C284.001 230.702 289.745 231.834 295.492 232.088C301.259 232.341 307.07 232.095 312.806 231.422C315.673 231.069 318.529 230.606 321.336 229.962C324.116 229.294 326.919 228.471 329.617 227.479C340.443 223.512 350.697 217.656 358.98 209.637L360.499 208.105C361.01 207.598 361.519 207.089 361.968 206.53L363.364 204.895C363.809 204.34 364.347 203.826 364.687 203.249C366.221 200.858 367.478 198.256 368.433 195.569C370.361 190.176 371.043 184.404 369.861 178.73ZM371.211 178.559C371.787 181.387 371.932 184.44 371.643 187.378C371.357 190.332 370.66 193.231 369.66 196.01C368.658 198.791 367.364 201.453 365.753 203.948C363.912 206.332 361.966 208.486 359.847 210.531C351.373 218.676 340.97 224.561 329.999 228.54C327.237 229.543 324.454 230.352 321.582 231.033C318.722 231.68 315.833 232.137 312.932 232.484C307.126 233.145 301.284 233.374 295.441 233.098C289.597 232.819 283.749 231.651 278.342 229.313C275.65 228.135 273.056 226.653 270.87 224.593C269.808 223.572 268.79 222.261 268.574 220.633C268.465 219.827 268.658 218.919 269.173 218.252C269.689 217.58 270.348 217.126 271.137 216.832L271.188 217.697L271.185 217.695L260.123 215.506C256.331 214.711 252.846 212.96 249.826 210.61C248.323 209.416 246.953 208.101 245.689 206.657C245.075 205.918 244.478 205.158 243.991 204.302C243.523 203.447 243.096 202.5 243.086 201.429C243.058 200.898 243.197 200.354 243.412 199.863C243.641 199.368 243.996 198.963 244.373 198.608C245.199 197.926 246.128 197.575 247.046 197.273C248.9 196.702 250.776 196.405 252.685 196.225L252.688 196.225L252.517 197.07L247.805 194.717L247.838 194.733C243.587 192.976 239.36 191.178 235.174 189.261C233.081 188.299 230.995 187.331 228.938 186.232C227.915 185.692 226.864 185.012 225.973 184.239C225.08 183.465 224.233 182.655 223.434 181.805C220.256 178.4 217.442 174.67 215.304 170.48C214.768 169.432 214.326 168.327 213.949 167.187C213.623 166.018 213.395 164.805 213.487 163.528C213.536 163.208 213.569 162.887 213.639 162.571C213.748 162.258 213.81 161.932 213.967 161.635C214.253 161.028 214.687 160.49 215.195 160.064C216.251 159.231 217.508 158.889 218.777 158.922L218.786 158.922C218.822 158.921 218.859 158.925 218.893 158.934L218.903 158.937L231.492 162.345L231.497 162.347L231.151 163.164C225.478 159.835 220.285 155.727 215.546 151.178C210.846 146.585 206.531 141.606 202.612 136.337C200.648 133.705 198.8 130.987 197.039 128.211C196.156 126.826 195.313 125.412 194.492 123.981C193.683 122.519 192.937 121.01 192.361 119.413C191.79 117.817 191.369 116.135 191.3 114.368C191.272 113.482 191.331 112.586 191.607 111.646C191.645 111.527 191.685 111.406 191.742 111.272C191.75 111.248 191.802 111.137 191.812 111.126L191.858 111.057L191.948 110.918L192.311 110.365C192.544 109.991 192.8 109.633 193.094 109.303C194.189 107.951 195.681 106.738 197.511 106.264C198.42 106.023 199.374 106.001 200.289 106.134C201.218 106.289 202.05 106.539 202.929 107.062C202.958 107.079 202.985 107.099 203.009 107.12L203.057 107.164C205.007 108.895 207.447 110.34 209.804 111.762C212.19 113.179 214.629 114.523 217.081 115.845C222 118.458 226.965 121.015 231.961 123.498L231.968 123.501L231.446 124.206C226.524 118.771 222.01 112.862 218.712 106.229C217.044 102.931 215.681 99.4595 214.793 95.8408C214.331 94.037 214.038 92.1823 213.905 90.3037C213.839 89.3645 213.84 88.414 213.908 87.455C214.005 86.4945 214.127 85.5221 214.58 84.5201C214.729 84.2753 214.864 84.0265 215.039 83.7949C215.263 83.5852 215.433 83.3272 215.723 83.1799C216.246 82.7958 216.906 82.7175 217.479 82.7139C218.631 82.7978 219.564 83.2551 220.399 83.7729C220.61 83.9032 220.812 84.0415 221.012 84.1897C221.214 84.3347 221.429 84.5168 221.588 84.6489L222.635 85.5182C223.333 86.0976 224.027 86.6842 224.753 87.2281C227.603 89.4764 230.597 91.5471 233.658 93.5108C239.76 97.4709 246.196 100.951 252.773 104.054L252.778 104.056L252.196 104.657C251.384 103.106 250.684 101.521 250.089 99.882C249.79 99.0588 249.509 98.2458 249.259 97.3874C248.99 96.4713 248.932 95.4044 249.288 94.3951C249.626 93.3756 250.411 92.5324 251.355 92.0601C251.833 91.8324 252.347 91.6747 252.907 91.636C253.186 91.6186 253.481 91.6389 253.787 91.7082C254.126 91.7849 254.372 91.9399 254.615 92.0983C255.405 92.6574 256.031 93.1597 256.728 93.6811C257.412 94.1906 258.091 94.7075 258.788 95.2C264.325 99.1926 270.188 102.753 276.157 106.11C288.123 112.789 300.543 118.666 313.145 124.098C316.298 125.458 319.461 126.759 322.595 128.238L327.307 130.395C328.101 130.735 328.863 131.144 329.62 131.564L331.9 132.798C333.415 133.631 334.954 134.422 336.447 135.291L340.826 138.079L343.01 139.479L345.093 141.033C346.469 142.084 347.896 143.069 349.229 144.175C354.582 148.573 359.434 153.629 363.38 159.357L364.132 160.423C364.378 160.781 364.582 161.167 364.809 161.538L366.141 163.784C366.606 164.521 366.934 165.334 367.337 166.106C367.712 166.892 368.137 167.654 368.438 168.476C369.82 171.663 370.871 175.07 371.211 178.559Z" fill="black"/>
<path d="M253.171 103.845C255.065 106.918 257.129 109.92 259.267 112.843C261.442 115.744 263.679 118.597 266.071 121.315C268.461 124.036 270.971 126.646 273.62 129.111C274.297 129.712 274.95 130.34 275.618 130.954C276.291 131.561 277.002 132.122 277.692 132.709C279.048 133.924 280.55 134.94 281.967 136.099L281.975 136.105C282.037 136.157 282.047 136.248 281.996 136.312C281.949 136.367 281.87 136.382 281.81 136.346C278.622 134.543 275.57 132.457 272.771 130.071C270.005 127.652 267.31 125.128 264.919 122.332C262.495 119.571 260.175 116.713 258.086 113.692C255.977 110.683 254.022 107.582 252.327 104.302C252.206 104.066 252.297 103.777 252.533 103.655C252.757 103.539 253.031 103.618 253.16 103.83L253.171 103.845Z" fill="black"/>
<path d="M275.304 87.9902C328.226 87.9902 369.954 138.227 368.43 200.106C366.906 261.984 322.701 312.223 269.778 312.223C216.856 312.223 175.127 261.984 176.653 200.106C178.177 138.227 222.381 87.9902 275.304 87.9902Z" fill="#B76C01"/>
<path d="M275.304 87.9902C328.226 87.9902 369.954 138.227 368.43 200.106C366.906 261.984 322.701 312.223 269.778 312.223C216.856 312.223 175.127 261.984 176.653 200.106C178.177 138.227 222.381 87.9902 275.304 87.9902Z" stroke="black" stroke-width="1.1825" stroke-linecap="round" stroke-linejoin="round"/>
<path d="M292.99 90.2958C295.078 90.7266 294.3 92.5093 294.466 94.883C295.158 104.778 287.743 127.148 287.014 141.302C285.572 169.344 278.772 229.126 272.542 271.411C270.752 283.55 266.675 292.072 263.549 300.401C262.286 303.773 268.685 297.035 271.008 298.333C280.696 303.746 302.485 302.319 297.612 308.718C296.485 310.198 294.877 310.18 292.99 310.592C289.867 311.274 285.979 311.723 282.245 311.723C263.121 311.723 242.68 309.901 227.992 298.603C209.538 284.406 197.183 260.333 191.931 233.402C189.797 222.452 191.336 210.417 192.223 198.441C193.906 175.694 195.178 165.585 200.864 148.87C203.764 140.346 208.662 133.28 214.169 126.274C225.547 111.8 239.432 101.139 256.609 91.9106C265.639 87.0585 286.227 88.9017 292.99 90.2958Z" fill="#F7C70B"/>
<path d="M294.206 91.0528C337.209 96.7137 369.762 143.902 368.349 201.197C366.997 256.075 334.941 301.682 294.206 310.406V91.0528Z" fill="#FCE908"/>
<path d="M285.025 98.1903C328.145 98.1903 362.005 144.783 360.591 202.172C359.176 259.561 323.022 306.154 279.902 306.154C236.782 306.154 202.922 259.561 204.337 202.172C205.751 144.783 241.907 98.1903 285.025 98.1903Z" stroke="black" stroke-width="1.1825" stroke-linecap="round" stroke-linejoin="round"/>
<path d="M285.572 90.2958C332.806 90.2958 369.931 139.905 368.425 201.009C366.919 262.114 327.349 311.723 280.114 311.723C232.88 311.723 195.756 262.114 197.261 201.009C198.767 139.905 238.338 90.2958 285.572 90.2958Z" stroke="black" stroke-width="1.1825" stroke-linecap="round" stroke-linejoin="round"/>
<path d="M292.427 99.1872L262.53 303.079C262.53 303.079 269.29 305.874 279.549 305.605C295.105 305.198 317.661 299.555 329.121 278.718C348.14 244.136 358.947 199.613 350.302 165.896C341.657 132.18 317.442 102.679 292.427 99.1872Z" fill="#F1C00A"/>
<path d="M304.35 101.43C336.941 114.122 361.778 154.059 360.606 201.588C359.273 255.665 327.025 300.21 287.016 305.605C321.112 293.11 347.079 250.437 348.327 199.776C349.395 156.447 330.33 119.188 304.35 101.43Z" fill="#B36701"/>
<path d="M304.35 101.43C336.941 114.122 361.778 154.059 360.606 201.588C359.273 255.665 327.025 300.21 287.016 305.605C321.112 293.11 347.079 250.437 348.327 199.776C349.395 156.447 330.33 119.188 304.35 101.43Z" stroke="black" stroke-width="1.1825" stroke-linecap="round" stroke-linejoin="round"/>
<path d="M261.42 302.353C227.862 291.273 203.737 250.528 204.93 202.02C206.332 145.002 242.185 98.7113 284.945 98.7113C287.665 98.7113 290.349 98.8994 292.989 99.264L261.42 302.353Z" fill="#F6C80A"/>
<path d="M232.136 207.636L235.018 177.31L249.572 161.941L312.001 144.1L318.314 146.159L254.778 164.685L242.291 180.054L239.821 211.616L232.136 207.636Z" fill="#DADADA"/>
<path d="M232.136 207.636L235.018 177.31L249.572 161.941L312.001 144.1L318.314 146.159L254.778 164.685L242.291 180.054L239.821 211.616L232.136 207.636Z" stroke="black" stroke-width="1.1825" stroke-linecap="round" stroke-linejoin="round"/>
<path d="M263.164 242.225V216.756L276.614 196.694L295.146 190.763L297.259 187.526L296.978 172.22L305.34 169.41L308.559 171.518V189.714L268.947 245.867L263.164 242.225Z" fill="#DADADA"/>
<path d="M263.164 242.225V216.756L276.614 196.694L295.146 190.763L297.259 187.526L296.978 172.22L305.34 169.41L308.559 171.518V189.714L268.947 245.867L263.164 242.225Z" stroke="black" stroke-width="1.1825" stroke-linecap="round" stroke-linejoin="round"/>
<path d="M249.563 162.296L254.629 164.466" stroke="black" stroke-width="1.1825" stroke-linecap="round" stroke-linejoin="round"/>
<path d="M235.316 177.412L242.077 180.221" stroke="black" stroke-width="1.1825" stroke-linecap="round" stroke-linejoin="round"/>
<path d="M276.786 196.858L281.66 198.683" stroke="black" stroke-width="1.1825" stroke-linecap="round" stroke-linejoin="round"/>
<path d="M269.461 245.236L270.148 217.381L281.949 198.581L305.552 191.993L307.481 189.3L307.677 171.955L304.996 169.694L268.892 180.691L264.31 185.247L264.366 204.077L239.94 211.616L242.137 180.218L254.608 164.673L318.314 146.236L333.8 153.964L334.326 191.378L320.011 209.205L300.778 215.706L296.474 220.624L295.595 238.979L269.461 245.236Z" fill="#F1F1F1"/>
<path d="M269.461 245.236L270.148 217.381L281.949 198.581L305.552 191.993L307.481 189.3L307.677 171.955L304.996 169.694L268.892 180.691L264.31 185.247L264.366 204.077L239.94 211.616L242.137 180.218L254.608 164.673L318.314 146.236L333.8 153.964L334.326 191.378L320.011 209.205L300.778 215.706L296.474 220.624L295.595 238.979L269.461 245.236Z" stroke="black" stroke-width="1.1825" stroke-linecap="round" stroke-linejoin="round"/>
<path d="M297.173 245.866L288.637 243.766L261.471 251.394L269.299 253.693L297.173 245.866Z" fill="#DADADA"/>
<path d="M297.173 245.866L288.637 243.766L261.471 251.394L269.299 253.693L297.173 245.866Z" stroke="black" stroke-width="1.1825" stroke-linecap="round" stroke-linejoin="round"/>
<path d="M269.382 253.786L268.602 274.864L296.392 265.184L297.173 245.866L269.382 253.786Z" fill="#F1F1F1"/>
<path d="M269.382 253.786L268.602 274.864L296.392 265.184L297.173 245.866L269.382 253.786Z" stroke="black" stroke-width="1.1825" stroke-linecap="round" stroke-linejoin="round"/>
<path d="M261.3 251.395L260.101 270.481L268.6 274.864L269.298 253.693L261.3 251.395Z" fill="#DADADA"/>
<path d="M261.3 251.395L260.101 270.481L268.6 274.864L269.298 253.693L261.3 251.395Z" stroke="black" stroke-width="1.1825" stroke-linecap="round" stroke-linejoin="round"/>
<path d="M191.018 205.872C191.018 205.872 189.759 175.754 139.605 154.775C89.4529 133.796 75.7605 120.442 74.3251 119.824C72.8899 119.206 69.4476 120.658 70.4926 124.51C71.5384 128.362 73.0854 131.695 73.0854 131.695C73.0854 131.695 55.1184 124.045 41.3386 112.249C41.3386 112.249 36.7576 108.411 35.4684 112.837C34.1784 117.265 35.3294 132.195 52.2626 151.135C52.2626 151.135 28.0822 139.923 22.9427 135.016C22.9427 135.016 17.4032 131.439 13.0839 138.803C13.0839 138.803 11.1496 142.598 15.6964 150.707C20.2441 158.816 33.6755 179.187 51.8627 190.007L39.2674 186.596C39.2674 186.596 33.6066 186.59 34.8261 192.98C36.0456 199.369 44.3907 209.565 48.536 212.178C52.6822 214.791 68.5184 221.495 68.5184 221.495L73.204 223.898C73.204 223.898 67.1765 224.364 65.1384 226.183C63.101 228 63.4844 231.081 69.0756 236.215C74.6678 241.35 80.7306 242.302 80.7306 242.302L91.7577 244.485C91.7577 244.485 88.2209 245.636 89.9463 249.26C91.6708 252.886 101.27 259.514 117.592 259.9C133.916 260.286 144.142 257.165 144.142 257.165C144.142 257.165 169.776 251.037 185.366 231.322C185.366 231.322 193.928 219.513 191.018 205.872Z" fill="white"/>
<path d="M85.9076 128.275C85.9076 128.275 79.9578 127.081 82.6914 133.509C82.6914 133.509 89.2291 147.199 103.502 160.893L114.564 172.086C114.564 172.086 82.086 151.955 72.6962 130.885C72.6962 130.885 67.5845 120.886 73.2973 120.175C73.2973 120.175 74.2494 120.056 76.3906 121.724C78.5318 123.391 85.9076 128.275 85.9076 128.275Z" fill="#E7E7E7"/>
<path d="M51.5775 120.46C51.5775 120.46 50.9721 138.906 62.2705 152.003C73.5689 165.101 75.5916 165.816 75.5916 165.816L71.7831 166.29C71.7831 166.29 55.961 155.689 51.4416 150.45C47.1968 145.529 34.455 127.165 35.493 113.415C35.6397 111.486 37.6655 110.268 39.4204 111.084C40.1901 111.442 41.0441 112.027 41.9421 112.957C45.2724 116.41 51.5775 120.46 51.5775 120.46Z" fill="#E7E7E7"/>
<path d="M30.8597 140.442C30.8597 140.442 25.8621 139.13 24.4317 143.175C23.0013 147.221 29.0652 157.102 29.0652 157.102C29.0652 157.102 41.0744 175.912 56.2998 189.487L67.1243 198.776C67.1243 198.776 37.38 185.074 25.1338 164.359C25.1338 164.359 12.4094 147.572 12.5322 140.789C12.6551 134.005 21.3427 133.891 22.4133 134.725C23.4839 135.558 30.8597 140.442 30.8597 140.442Z" fill="#E7E7E7"/>
<path d="M49.6345 190.317C49.6345 190.317 49.9899 193.173 52.3681 196.745C54.7462 200.316 62.4731 215.792 76.2724 225.677L56.6418 215.55C56.6418 215.55 43.7902 213.282 37.0155 197.688C37.0155 197.688 32.2592 190.545 37.6166 186.978L50.5867 190.198L49.6345 190.317Z" fill="#E7E7E7"/>
<path d="M72.3454 225.199C72.3454 225.199 72.1041 231.03 75.316 233.531C78.5278 236.032 99.229 246.992 99.229 246.992L90.1859 244.25C90.1859 244.25 79.3571 242.697 74.1225 239.481C68.888 236.265 63.4165 231.144 64.0132 228.169C64.6099 225.195 72.3454 225.199 72.3454 225.199Z" fill="#E7E7E7"/>
<path d="M106.482 258.659C106.482 258.659 148.367 268.918 182.661 233.711C182.661 233.711 193.973 223.601 190.533 203.725C190.533 203.725 193.38 218.841 181.599 217.406C169.818 215.971 165.896 207.757 165.896 207.757C165.896 207.757 141.5 205.959 132.343 194.529C123.186 183.099 134.37 187.508 134.37 187.508C134.37 187.508 128.78 181.436 116.876 186.784C116.876 186.784 114.257 189.044 117.587 192.497C120.917 195.95 132.097 208.095 146.972 211.079C146.972 211.079 153.277 215.129 150.657 217.388C148.038 219.648 140.895 224.404 121.027 212.373C121.027 212.373 131.255 224.637 147.2 228.454C147.2 228.454 151.838 234.645 143.027 241.543C134.217 248.44 113.147 257.83 106.482 258.659Z" fill="#E7E7E7"/>
<path d="M82.4936 166.891C82.4936 166.891 77.8515 168.435 78.4438 173.196C79.0362 177.956 89.264 190.22 89.264 190.22C89.264 190.22 68.6812 180.212 67.8519 173.547C67.0226 166.882 74.7581 166.886 82.4936 166.891Z" fill="#E7E7E7"/>
<path d="M94.7353 195.34C94.7353 195.34 85.5694 199.382 89.3736 206.643C93.1777 213.905 104.121 224.146 104.121 224.146C104.121 224.146 76.5176 212.11 73.3102 201.874C70.1027 191.637 94.7353 195.34 94.7353 195.34Z" fill="#E7E7E7"/>
<path d="M115.178 243.074C115.178 243.074 99.4749 233.426 99.001 229.617C98.5271 225.809 102.217 224.383 102.217 224.383C102.217 224.383 92.5774 224.615 90.1949 228.779C87.8123 232.943 105.42 242.355 115.178 243.074Z" fill="#E7E7E7"/>
<path d="M190.343 205.957C190.005 202.6 188.99 199.355 187.632 196.253C187.341 195.458 186.922 194.717 186.555 193.955C186.159 193.206 185.841 192.417 185.383 191.702L184.079 189.518C183.856 189.157 183.656 188.782 183.414 188.434L182.677 187.395C178.803 181.819 174.034 176.879 168.755 172.575C167.44 171.492 166.029 170.527 164.673 169.498L162.618 167.976L160.459 166.604L156.132 163.871C154.654 163.018 153.129 162.243 151.632 161.425L149.375 160.213C148.627 159.802 147.873 159.402 147.085 159.067L142.416 156.95C139.327 155.512 136.135 154.191 132.977 152.832C120.336 147.389 107.871 141.498 95.8279 134.783C89.82 131.405 83.9114 127.822 78.2952 123.776C77.589 123.276 76.9003 122.753 76.2066 122.237C75.5294 121.728 74.8072 121.162 74.1962 120.727C73.8494 120.395 73.1652 120.506 72.5558 120.761C71.9586 121.051 71.4798 121.539 71.2609 122.158C71.0217 122.769 71.0319 123.503 71.2094 124.238C71.3916 125.042 71.6232 125.87 71.864 126.678C72.3602 128.296 72.8943 129.924 73.4916 131.507L73.5136 131.567C73.5985 131.791 73.4849 132.043 73.2604 132.127C73.1412 132.172 73.0141 132.161 72.9089 132.108L72.9048 132.106C69.4801 130.738 66.2184 129.063 62.9572 127.378C59.7086 125.669 56.5177 123.849 53.3977 121.907C50.2874 119.95 47.2441 117.878 44.3322 115.619C43.5903 115.074 42.8827 114.484 42.1703 113.903L41.1005 113.029C40.9058 112.871 40.7708 112.757 40.601 112.636C40.4331 112.514 40.2569 112.395 40.0781 112.287C39.3712 111.843 38.5853 111.519 37.9016 111.479C37.2363 111.478 36.787 111.76 36.4466 112.428C35.8529 113.826 35.7929 115.706 35.8939 117.443C36.0073 119.209 36.2737 120.985 36.7087 122.724C37.5406 126.216 38.8574 129.596 40.4245 132.85C41.1828 134.492 42.096 136.058 42.981 137.638C43.9401 139.176 44.8706 140.733 45.9302 142.209C47.9452 145.232 50.2529 148.05 52.5961 150.836L52.6097 150.852C52.7675 151.04 52.7435 151.322 52.5554 151.481C52.4161 151.596 52.2278 151.614 52.0746 151.54L52.0665 151.537C46.943 149.284 41.8782 146.911 36.883 144.375C34.3894 143.1 31.9046 141.804 29.4548 140.422C28.235 139.718 27.0235 139.003 25.8333 138.227C24.6392 137.464 23.4728 136.63 22.3462 135.642L22.4737 135.742C21.948 135.433 21.1927 135.183 20.5139 135.09C19.8167 134.996 19.1084 135.015 18.4371 135.199C17.0879 135.56 15.9069 136.497 14.9718 137.669C14.7206 137.951 14.5065 138.258 14.3107 138.58L14.0037 139.051L13.9256 139.169L13.8875 139.228C13.8691 139.259 13.9039 139.197 13.8913 139.219C13.8689 139.272 13.8441 139.345 13.8196 139.421C13.6308 140.048 13.5592 140.801 13.5839 141.543C13.6349 143.041 13.9962 144.57 14.5171 146.044C15.565 148.995 17.2815 151.757 18.9848 154.52C20.7071 157.265 22.5197 159.959 24.4465 162.569C28.2612 167.817 32.434 172.812 37.0083 177.412C41.6019 181.981 46.5781 186.198 52.0917 189.621L52.1043 189.629C52.3139 189.76 52.3782 190.035 52.2476 190.245C52.1405 190.418 51.9322 190.492 51.7458 190.439L51.7408 190.438L39.1514 187.028L39.2674 187.044L39.2627 187.045C38.244 187.165 37.2071 187.596 36.4995 188.242C35.8096 188.922 35.4382 189.838 35.3806 190.859C35.3283 191.884 35.5576 192.95 35.8304 193.992C36.1716 195.033 36.5758 196.066 37.0831 197.067C39.103 201.07 41.8575 204.767 44.9261 208.075C45.6963 208.904 46.5098 209.683 47.3475 210.417C48.189 211.158 49.0661 211.742 50.0653 212.289C52.0466 213.378 54.1166 214.373 56.184 215.353C60.3318 217.296 64.5181 219.181 68.7142 221.03L68.7265 221.035L68.7481 221.046L73.4083 223.5L73.4144 223.503C73.6328 223.618 73.7166 223.888 73.6018 224.108C73.5276 224.249 73.3872 224.333 73.2387 224.344L73.2358 224.345C71.4048 224.517 69.5418 224.814 67.7999 225.354C66.939 225.63 66.0798 225.982 65.4489 226.507C64.8157 227.067 64.4331 227.815 64.4636 228.643C64.4628 229.468 64.8228 230.31 65.2522 231.088C65.6967 231.871 66.2636 232.596 66.8505 233.303C68.0632 234.688 69.4183 235.99 70.861 237.133C73.7612 239.399 77.1854 241.105 80.7631 241.853L91.8416 244.045L91.8447 244.047C92.0865 244.094 92.2443 244.329 92.1963 244.572C92.1656 244.73 92.0541 244.851 91.9146 244.903L91.8961 244.91C91.3259 245.123 90.7409 245.526 90.3812 246.016C90.0086 246.51 89.8784 247.126 89.9583 247.752C90.1334 249.044 90.9814 250.194 91.9965 251.157C94.0553 253.086 96.582 254.534 99.207 255.668C104.483 257.929 110.227 259.061 115.975 259.315C121.742 259.568 127.552 259.322 133.288 258.649C136.155 258.296 139.012 257.834 141.819 257.189C144.599 256.521 147.402 255.699 150.099 254.706C160.925 250.739 171.179 244.884 179.462 236.864L180.982 235.333C181.492 234.826 182.001 234.317 182.45 233.757L183.846 232.122C184.291 231.568 184.83 231.053 185.171 230.476C186.703 228.086 187.961 225.484 188.916 222.796C190.844 217.404 191.526 211.631 190.343 205.957ZM191.694 205.786C192.269 208.615 192.415 211.668 192.125 214.606C191.84 217.56 191.143 220.459 190.143 223.238C189.141 226.018 187.847 228.68 186.235 231.176C184.394 233.559 182.448 235.714 180.329 237.758C171.855 245.903 161.452 251.789 150.481 255.768C147.72 256.77 144.936 257.58 142.064 258.261C139.204 258.908 136.315 259.364 133.415 259.711C127.608 260.373 121.766 260.601 115.924 260.325C110.079 260.046 104.231 258.878 98.8245 256.541C96.1321 255.363 93.5381 253.88 91.3529 251.82C90.2901 250.8 89.2732 249.489 89.0561 247.861C88.9472 247.055 89.1406 246.147 89.6552 245.48C90.172 244.808 90.8308 244.353 91.6191 244.059L91.6706 244.924L91.6675 244.922L80.6059 242.734C76.8134 241.938 73.3285 240.188 70.3085 237.837C68.8055 236.644 67.435 235.328 66.1707 233.885C65.5575 233.145 64.9592 232.385 64.4737 231.53C64.0057 230.674 63.5784 229.727 63.5689 228.656C63.5406 228.126 63.6798 227.581 63.8943 227.091C64.1237 226.595 64.4775 226.19 64.8568 225.836C65.6817 225.153 66.6108 224.802 67.5285 224.501C69.3823 223.929 71.2581 223.633 73.1674 223.453L73.1693 223.453L72.9997 224.297L68.2874 221.944L68.3204 221.96C64.07 220.204 59.8415 218.406 55.6562 216.489C53.5621 215.527 51.4779 214.558 49.421 213.459C48.3976 212.919 47.3452 212.24 46.4551 211.466C45.5621 210.693 44.7149 209.882 43.917 209.033C40.7377 205.628 37.9249 201.897 35.786 197.708C35.2506 196.66 34.8084 195.554 34.4316 194.414C34.1053 193.245 33.8771 192.033 33.9696 190.756C34.0187 190.435 34.0514 190.115 34.1212 189.798C34.2301 189.485 34.2922 189.16 34.4494 188.862C34.7355 188.255 35.1696 187.718 35.6773 187.292C36.733 186.459 37.9899 186.117 39.2606 186.15L39.2682 186.149C39.305 186.149 39.3412 186.153 39.3753 186.162L39.3852 186.164L51.9745 189.573L51.9795 189.574L51.6345 190.392C45.9606 187.063 40.7678 182.955 36.0287 178.406C31.3286 173.812 27.0137 168.833 23.094 163.565C21.1304 160.932 19.2821 158.215 17.5213 155.439C16.6381 154.053 15.7951 152.64 14.974 151.208C14.1657 149.747 13.419 148.237 12.8433 146.641C12.2725 145.045 11.8514 143.363 11.7823 141.595C11.7542 140.709 11.8129 139.813 12.0896 138.874C12.127 138.755 12.1671 138.634 12.2247 138.499C12.2325 138.476 12.2844 138.365 12.2946 138.354L12.3401 138.284L12.4302 138.146L12.7936 137.593C13.0264 137.218 13.2826 136.861 13.5761 136.531C14.6716 135.179 16.1632 133.965 17.9935 133.491C18.9025 133.251 19.8569 133.229 20.7716 133.361C21.7007 133.516 22.5325 133.767 23.4117 134.29C23.4409 134.307 23.4674 134.326 23.4913 134.347L23.5393 134.391C25.4893 136.122 27.9298 137.568 30.2859 138.989C32.6724 140.406 35.1118 141.75 37.563 143.072C42.4838 145.686 47.4477 148.243 52.443 150.725L52.4512 150.729L51.9287 151.433C47.0061 145.998 42.4922 140.089 39.1947 133.456C37.5265 130.159 36.1634 126.688 35.275 123.068C34.8137 121.264 34.5201 119.409 34.388 117.532C34.3213 116.592 34.3219 115.641 34.3911 114.682C34.4864 113.723 34.6081 112.75 35.0624 111.747C35.2119 111.503 35.3463 111.254 35.5215 111.023C35.7449 110.813 35.9158 110.555 36.2049 110.408C36.7284 110.023 37.3887 109.944 37.9608 109.942C39.113 110.025 40.0449 110.482 40.8809 111C41.0916 111.131 41.2944 111.269 41.4946 111.418C41.6964 111.563 41.9115 111.745 42.07 111.877L43.1179 112.745C43.8165 113.324 44.5084 113.912 45.2354 114.455C48.0851 116.703 51.079 118.774 54.1408 120.738C60.2423 124.698 66.6787 128.178 73.2557 131.282L73.2608 131.284L72.6781 131.884C71.8664 130.334 71.1664 128.749 70.5708 127.109C70.2721 126.287 69.991 125.473 69.7411 124.614C69.4734 123.698 69.4151 122.631 69.7701 121.622C70.1084 120.604 70.8938 119.759 71.8378 119.288C72.316 119.059 72.8301 118.902 73.389 118.863C73.6683 118.847 73.9638 118.867 74.2701 118.935C74.6085 119.013 74.8549 119.167 75.0971 119.326C75.8878 119.884 76.513 120.387 77.2102 120.908C77.8944 121.418 78.5737 121.935 79.2703 122.428C84.8083 126.42 90.6696 129.98 96.6382 133.338C108.606 140.017 121.025 145.893 133.628 151.325C136.781 152.685 139.943 153.987 143.078 155.464L147.79 157.623C148.584 157.963 149.346 158.371 150.102 158.791L152.383 160.026C153.897 160.858 155.436 161.649 156.93 162.518L161.308 165.306L163.493 166.707L165.575 168.26C166.952 169.312 168.378 170.296 169.711 171.402C175.066 175.801 179.917 180.856 183.863 186.585L184.614 187.65C184.86 188.008 185.065 188.395 185.293 188.765L186.623 191.011C187.088 191.748 187.416 192.561 187.819 193.333C188.194 194.119 188.62 194.882 188.92 195.703C190.302 198.891 191.354 202.298 191.694 205.786Z" fill="black"/>
<path d="M73.6535 131.073C75.5471 134.146 77.6117 137.148 79.7496 140.071C81.9244 142.972 84.16 145.825 86.5538 148.543C88.9421 151.264 91.4539 153.874 94.1025 156.339C94.7795 156.94 95.433 157.568 96.1002 158.182C96.7722 158.789 97.484 159.35 98.1749 159.937C99.5298 161.152 101.032 162.168 102.45 163.327L102.457 163.333C102.52 163.385 102.529 163.476 102.478 163.54C102.432 163.595 102.353 163.609 102.292 163.574C99.1051 161.771 96.0522 159.685 93.2521 157.299C90.4875 154.88 87.792 152.356 85.4012 149.56C82.9778 146.799 80.6576 143.941 78.5683 140.92C76.4594 137.911 74.5053 134.81 72.8092 131.53C72.6881 131.294 72.7798 131.005 73.016 130.883C73.2394 130.767 73.5132 130.846 73.6439 131.057L73.6535 131.073Z" fill="black"/>
<path d="M52.3159 150.528C54.1236 152.39 55.9849 154.216 57.8986 155.975C58.8552 156.856 59.8306 157.717 60.8317 158.543C61.8341 159.365 62.8544 160.175 63.9556 160.844C64.0359 160.891 64.0623 160.994 64.0152 161.074C63.9697 161.151 63.8686 161.177 63.7889 161.135C62.632 160.494 61.5715 159.718 60.5267 158.928C59.4833 158.135 58.4667 157.308 57.4707 156.46C55.4743 154.767 53.5379 153.014 51.6374 151.206C51.4455 151.023 51.4376 150.719 51.6197 150.528C51.8027 150.336 52.1063 150.328 52.2983 150.511C52.3026 150.514 52.307 150.518 52.3114 150.523L52.3159 150.528Z" fill="black"/>
<path d="M51.263 189.259C53.0453 189.868 54.5106 190.991 56.0928 191.926C57.6582 192.89 59.2404 193.826 60.8406 194.727C62.4295 195.647 64.0347 196.542 65.6749 197.361C67.3095 198.189 68.966 198.984 70.6899 199.598C70.794 199.634 70.8497 199.747 70.8134 199.852C70.7809 199.948 70.6765 200.003 70.579 199.981C68.7592 199.552 67.018 198.877 65.3013 198.167C63.5904 197.44 61.9125 196.644 60.2559 195.81C58.6062 194.961 56.9772 194.077 55.3623 193.166C53.7663 192.227 52.0757 191.439 50.7438 190.067C50.5551 189.871 50.5588 189.56 50.7537 189.37C50.8909 189.237 51.0865 189.2 51.256 189.257L51.263 189.259Z" fill="black"/>
<path d="M72.6436 223.711C72.6436 223.711 83.8278 228.121 86.0875 230.74" stroke="black" stroke-width="1.25" stroke-miterlimit="10" stroke-linecap="round"/>
<path d="M170.071 223.184C169.699 220.24 168.992 217.333 168.133 214.496C167.247 211.665 166.235 208.87 164.906 206.226C164.596 205.555 164.268 204.894 163.89 204.258L162.802 202.332C161.964 201.12 161.234 199.833 160.289 198.703C158.573 196.306 156.413 194.292 154.191 192.398C153.602 191.966 152.994 191.559 152.397 191.137C151.793 190.724 151.217 190.282 150.56 189.924C149.278 189.178 148.019 188.397 146.706 187.699C144.117 186.245 141.475 184.88 138.8 183.579C133.452 180.98 127.992 178.594 122.429 176.483C116.869 174.366 111.224 172.471 105.5 170.872C99.7775 169.274 93.9664 167.974 88.0896 167.243C85.1533 166.878 82.1991 166.658 79.2527 166.694C78.516 166.678 77.779 166.685 77.0475 166.742C76.311 166.768 75.5849 166.845 74.8593 166.927C73.4187 167.114 71.9711 167.353 70.6615 167.862C69.3715 168.358 68.1756 169.167 67.8426 170.329C67.4685 171.488 67.9616 172.879 68.6414 174.092C70.0811 176.54 72.2405 178.664 74.4694 180.508L74.4269 180.477L84.3616 187.059C87.6645 189.267 90.9478 191.503 94.2159 193.765C94.3271 193.842 94.3558 193.995 94.2779 194.108C94.2033 194.216 94.0581 194.245 93.9472 194.178C90.5526 192.111 87.1743 190.021 83.8156 187.901L73.7641 181.499L73.741 181.484L73.7217 181.469C72.5178 180.504 71.4072 179.489 70.3553 178.378C69.306 177.273 68.3288 176.079 67.5345 174.723C67.1431 174.04 66.8137 173.305 66.5957 172.508C66.38 171.715 66.3408 170.809 66.595 169.954C66.8492 169.106 67.3909 168.331 68.0605 167.83C68.3711 167.529 68.7443 167.366 69.0863 167.131C69.4456 166.949 69.8109 166.785 70.1765 166.622C71.6568 166.04 73.1799 165.785 74.6924 165.578C75.4498 165.487 76.207 165.403 76.9639 165.37C77.7207 165.306 78.4764 165.295 79.2328 165.306C82.2579 165.249 85.2732 165.456 88.262 165.807C100.239 167.236 111.77 170.862 122.962 175.095C128.561 177.233 134.053 179.645 139.439 182.275C142.131 183.592 144.794 184.974 147.409 186.45C148.731 187.156 149.995 187.977 151.285 188.746C151.936 189.113 152.545 189.585 153.167 190.023C153.784 190.47 154.411 190.905 155.018 191.364C159.698 195.267 163.385 200.283 165.801 205.805C167.066 208.542 168.065 211.395 168.814 214.303C169.559 217.214 170.141 220.16 170.39 223.158C170.397 223.245 170.331 223.323 170.244 223.33C170.158 223.338 170.082 223.276 170.072 223.192L170.071 223.184Z" fill="black"/>
<path d="M96.164 195.962C93.4191 195.675 90.6421 195.542 87.8994 195.615C85.1617 195.696 82.4174 195.958 79.8758 196.729C78.6133 197.12 77.42 197.67 76.4171 198.415C76.1512 198.585 75.9457 198.814 75.7038 199.007C75.5031 199.235 75.2745 199.441 75.1012 199.688C74.9248 199.934 74.7389 200.172 74.6114 200.445C74.4538 200.725 74.3427 200.944 74.2986 201.179C74.0539 202.12 74.5558 203.325 75.256 204.383C75.9695 205.455 76.8908 206.448 77.8667 207.384C79.8381 209.248 82.027 210.941 84.2852 212.53C86.5528 214.11 88.8612 215.653 91.228 217.105C95.9672 220.008 100.812 222.758 105.728 225.396C100.585 223.23 95.5529 220.789 90.6612 218.075C88.2178 216.714 85.7838 215.32 83.4452 213.76C81.1062 212.205 78.8 210.571 76.6986 208.626C75.6501 207.651 74.6387 206.61 73.7849 205.374C73.3626 204.753 72.9774 204.082 72.7097 203.314C72.4366 202.557 72.3155 201.653 72.5295 200.762C72.6223 200.312 72.832 199.899 73.017 199.575C73.191 199.217 73.4269 198.899 73.6608 198.58C73.8906 198.258 74.1769 197.988 74.4407 197.698C74.7367 197.451 75.0134 197.165 75.3333 196.954C76.5797 196.046 77.9776 195.469 79.3798 195.059C82.2034 194.277 85.0814 194.126 87.9066 194.22C89.3225 194.261 90.7288 194.397 92.1246 194.581C93.522 194.762 94.9045 194.986 96.2836 195.315C96.4599 195.357 96.5701 195.536 96.5274 195.713C96.4887 195.876 96.3346 195.982 96.1729 195.964L96.164 195.962Z" fill="black"/>
<path d="M99.8823 224.67C98.2347 225.206 96.574 225.768 94.988 226.426C94.1986 226.765 93.4204 227.115 92.6923 227.519C91.9823 227.928 91.2662 228.382 90.8478 228.912C90.742 229.041 90.6682 229.171 90.6124 229.289C90.5783 229.349 90.5781 229.402 90.5523 229.459C90.5533 229.498 90.5593 229.507 90.5459 229.54C90.5551 229.73 90.7383 230.091 90.9323 230.4C91.3599 231.046 91.9396 231.672 92.5447 232.261C93.7713 233.44 95.1487 234.501 96.5696 235.493C99.4333 237.449 102.48 239.175 105.684 240.541C108.889 241.883 112.247 242.943 115.723 243.228C115.868 243.238 115.977 243.362 115.969 243.509C115.96 243.647 115.839 243.754 115.701 243.754C112.125 243.69 108.607 242.8 105.284 241.533C101.96 240.245 98.7613 238.63 95.7867 236.645C94.3005 235.649 92.8567 234.583 91.5174 233.345C90.8524 232.718 90.2071 232.062 89.6448 231.249C89.382 230.816 89.0879 230.403 88.9878 229.707C88.98 229.52 88.9846 229.308 89.0127 229.13C89.0576 228.978 89.0918 228.81 89.1579 228.673C89.2779 228.387 89.4378 228.14 89.6095 227.928C90.311 227.084 91.1285 226.591 91.9482 226.147C92.7728 225.718 93.6111 225.361 94.4663 225.069C96.1706 224.469 97.8931 224.022 99.6694 223.736C99.9318 223.692 100.178 223.87 100.221 224.132C100.26 224.37 100.117 224.595 99.8954 224.667L99.8823 224.67Z" fill="black"/>
<path d="M128.621 184.354C126.359 184.549 124.082 184.891 121.871 185.366C120.764 185.609 119.678 185.92 118.637 186.297C117.611 186.682 116.587 187.16 115.885 187.848C115.552 188.167 115.269 188.627 115.253 188.928C115.218 189.29 115.39 189.783 115.592 190.247C116.049 191.192 116.726 192.097 117.448 192.95C118.908 194.662 120.606 196.204 122.359 197.662C125.893 200.559 129.736 203.102 133.774 205.27C137.821 207.414 142.041 209.287 146.488 210.444C146.607 210.473 146.68 210.595 146.65 210.716C146.62 210.834 146.501 210.905 146.383 210.879C141.858 209.853 137.493 208.166 133.372 206.038C129.245 203.915 125.311 201.414 121.658 198.528C119.842 197.07 118.08 195.533 116.512 193.761C115.734 192.869 114.989 191.932 114.417 190.807C114.159 190.226 113.898 189.605 113.953 188.804C114.062 187.944 114.504 187.409 114.969 186.92C115.934 185.994 117.073 185.507 118.189 185.08C119.315 184.666 120.467 184.392 121.616 184.161C123.922 183.697 126.237 183.483 128.577 183.397C128.841 183.387 129.064 183.593 129.074 183.857C129.083 184.114 128.889 184.33 128.637 184.352L128.621 184.354Z" fill="black"/>
<path d="M130.352 205.41C128.476 205.859 126.596 206.311 124.734 206.808C123.804 207.057 122.878 207.321 121.966 207.601C121.512 207.741 121.057 207.885 120.622 208.048C120.405 208.129 120.192 208.214 119.994 208.304C119.902 208.35 119.797 208.396 119.727 208.442C119.689 208.465 119.642 208.49 119.631 208.504C119.608 208.518 119.577 208.546 119.618 208.506L119.67 208.4C119.687 208.356 119.695 208.305 119.693 208.257C119.692 208.234 119.688 208.21 119.682 208.19L119.688 208.202L119.721 208.297C119.727 208.344 119.792 208.483 119.827 208.576C119.904 208.78 120.008 208.992 120.106 209.203C120.302 209.626 120.526 210.046 120.751 210.461C121.214 211.289 121.697 212.11 122.233 212.896C123.285 214.482 124.435 216.003 125.717 217.406C128.27 220.239 131.367 222.465 134.944 223.831C138.524 225.285 142.066 226.847 145.722 228.099L145.727 228.102C145.758 228.112 145.773 228.144 145.763 228.174C145.754 228.201 145.727 228.216 145.701 228.212C143.77 227.892 141.901 227.338 140.048 226.755C138.188 226.185 136.364 225.516 134.546 224.834C133.641 224.511 132.725 224.122 131.814 223.7C130.94 223.224 130.056 222.752 129.257 222.163C127.622 221.034 126.124 219.717 124.789 218.262C123.45 216.812 122.223 215.261 121.148 213.609C120.601 212.789 120.108 211.935 119.634 211.067C119.402 210.628 119.174 210.193 118.966 209.734C118.862 209.506 118.756 209.282 118.663 209.031C118.615 208.898 118.568 208.82 118.519 208.629L118.454 208.375L118.447 208.343L118.448 208.231C118.452 208.154 118.467 208.075 118.491 208C118.551 207.822 118.586 207.82 118.637 207.743C118.748 207.601 118.817 207.564 118.892 207.505C118.973 207.442 119.035 207.41 119.101 207.372C119.237 207.289 119.355 207.24 119.48 207.178C119.724 207.071 119.962 206.978 120.2 206.893C120.673 206.722 121.145 206.576 121.616 206.436C122.558 206.157 123.506 205.926 124.452 205.696C126.347 205.245 128.242 204.831 130.155 204.471C130.416 204.422 130.666 204.593 130.715 204.854C130.763 205.106 130.599 205.351 130.352 205.41Z" fill="black"/>
<path d="M132.801 225.411C131.649 225.648 130.469 225.989 129.414 226.465C128.384 226.952 127.365 227.615 127.097 228.535C126.993 228.811 127.023 228.829 127.068 229.041C127.147 229.228 127.268 229.446 127.453 229.649C127.801 230.062 128.254 230.443 128.726 230.799C129.689 231.499 130.742 232.115 131.828 232.669C134.004 233.767 136.283 234.706 138.622 235.443C139.792 235.806 140.977 236.128 142.178 236.365C143.376 236.6 144.599 236.761 145.804 236.665L145.81 236.665C145.908 236.656 145.995 236.731 146.003 236.83C146.011 236.925 145.943 237.01 145.848 237.022C144.587 237.194 143.322 237.097 142.083 236.927C140.841 236.759 139.618 236.492 138.412 236.164C136.002 235.506 133.639 234.668 131.373 233.584C130.239 233.042 129.131 232.437 128.071 231.708C127.546 231.333 127.03 230.932 126.564 230.411C126.329 230.159 126.114 229.848 125.95 229.467C125.887 229.261 125.803 229.051 125.82 228.796C125.814 228.516 125.883 228.347 125.94 228.167C126.172 227.439 126.652 226.821 127.196 226.399C127.739 225.964 128.325 225.623 128.933 225.376C130.152 224.875 131.387 224.579 132.683 224.459C132.947 224.435 133.18 224.628 133.205 224.893C133.227 225.138 133.061 225.358 132.826 225.406L132.801 225.411Z" fill="black"/>
<path d="M91.7955 244.085L106.709 248.322C106.798 248.347 106.85 248.439 106.825 248.529C106.8 248.615 106.711 248.667 106.624 248.646L91.5522 245.012C91.2941 244.951 91.1361 244.691 91.1979 244.434C91.2605 244.175 91.5193 244.018 91.7765 244.079C91.7824 244.081 91.7904 244.082 91.7955 244.085Z" fill="black"/>
</g>
</g>
<defs>
<clipPath id="clip0_211_11341">
<rect width="393" height="393" fill="white"/>
</clipPath>
</defs>
</svg>
