<svg width="137" height="95" viewBox="0 0 137 95" fill="none" xmlns="http://www.w3.org/2000/svg">
<circle cx="93.9685" cy="52.2772" r="28.6504" transform="rotate(20.9409 93.9685 52.2772)" fill="#D75304" stroke="#0D0D0D" stroke-width="0.548949"/>
<circle cx="97.7458" cy="49.9895" r="28.6504" transform="rotate(20.9409 97.7458 49.9895)" fill="#FFDF0D" stroke="#0D0D0D" stroke-width="0.548949"/>
<mask id="mask0_211_11320" style="mask-type:alpha" maskUnits="userSpaceOnUse" x="69" y="21" width="58" height="58">
<circle cx="97.7459" cy="49.9902" r="28.3989" transform="rotate(43.3059 97.7459 49.9902)" fill="white"/>
</mask>
<g mask="url(#mask0_211_11320)">
<rect x="110.337" y="20.582" width="22.0062" height="58.9567" transform="rotate(43.3059 110.337 20.582)" fill="white"/>
</g>
<circle cx="97.7457" cy="49.9897" r="19.612" transform="rotate(20.9409 97.7457 49.9897)" stroke="#0D0D0D" stroke-width="0.548949"/>
<path d="M85.9657 57.3114L87.8403 43.9317L92.9622 44.6493C93.9291 44.7848 94.7113 45.0498 95.3089 45.4444C95.9113 45.8352 96.3349 46.3143 96.5797 46.8815C96.8287 47.4493 96.9069 48.0642 96.8141 48.7262C96.7379 49.2706 96.568 49.722 96.3047 50.0803C96.0419 50.4343 95.7174 50.7064 95.331 50.8965C94.9447 51.0866 94.5264 51.2034 94.0762 51.2469L94.0579 51.3776C94.529 51.4702 94.9637 51.6799 95.362 52.0066C95.7653 52.3296 96.0727 52.7501 96.2843 53.2683C96.496 53.7864 96.5542 54.3852 96.459 55.0646C96.3619 55.7571 96.107 56.3565 95.6941 56.8626C95.2819 57.3644 94.7159 57.727 93.9963 57.9503C93.2767 58.1737 92.4051 58.2137 91.3816 58.0703L85.9657 57.3114ZM88.6732 55.6258L91.2799 55.991C92.1597 56.1143 92.8169 56.0354 93.2515 55.7543C93.6911 55.4695 93.9481 55.0614 94.0225 54.5301C94.0781 54.1337 94.0301 53.7629 93.8787 53.4175C93.7278 53.0677 93.4845 52.776 93.1486 52.5425C92.8134 52.3045 92.3953 52.1505 91.8944 52.0803L89.2224 51.7059L88.6732 55.6258ZM89.4668 49.9616L91.8644 50.2975C92.2826 50.3561 92.67 50.3327 93.0267 50.2272C93.384 50.1174 93.6783 49.9344 93.9096 49.6781C94.1459 49.4182 94.2915 49.0922 94.3464 48.7002C94.419 48.1819 94.2959 47.7294 93.9771 47.3428C93.6625 46.9568 93.1482 46.7137 92.4339 46.6137L89.984 46.2704L89.4668 49.9616ZM102.367 59.8093C101.361 59.6683 100.522 59.3375 99.8484 58.8169C99.1803 58.2925 98.7042 57.6174 98.4202 56.7916C98.1369 55.9614 98.0687 55.0215 98.2158 53.9719C98.3604 52.9396 98.6833 52.0612 99.1845 51.3365C99.6907 50.608 100.329 50.0758 101.1 49.7397C101.872 49.3993 102.737 49.2962 103.695 49.4304C104.313 49.5171 104.883 49.699 105.404 49.9763C105.929 50.2498 106.374 50.623 106.739 51.0959C107.108 51.5695 107.369 52.1435 107.523 52.8179C107.678 53.488 107.694 54.2629 107.571 55.1427L107.469 55.8679L99.244 54.7154L99.4674 53.1214L105.426 53.9562C105.485 53.5026 105.443 53.086 105.301 52.7064C105.159 52.3224 104.931 52.0039 104.615 51.751C104.304 51.4987 103.922 51.3408 103.469 51.2774C102.986 51.2096 102.545 51.2677 102.146 51.4516C101.748 51.6312 101.42 51.8961 101.162 52.2464C100.909 52.5929 100.749 52.9901 100.682 53.4381L100.487 54.8296C100.405 55.4133 100.442 55.9291 100.597 56.3771C100.752 56.8208 101.006 57.1805 101.358 57.4563C101.711 57.7278 102.144 57.8995 102.658 57.9715C103.002 58.0198 103.32 58.0155 103.612 57.9587C103.905 57.8976 104.167 57.7856 104.399 57.6226C104.63 57.4596 104.818 57.2439 104.963 56.9755L107.136 57.5331C106.915 58.0972 106.578 58.5696 106.125 58.9502C105.677 59.3271 105.133 59.5929 104.494 59.7476C103.856 59.898 103.147 59.9185 102.367 59.8093Z" fill="#D75304"/>
<path d="M85.9657 57.3114L85.7357 57.2792L85.7035 57.5092L85.9334 57.5414L85.9657 57.3114ZM87.8403 43.9317L87.8725 43.7017L87.6425 43.6695L87.6103 43.8995L87.8403 43.9317ZM95.3089 45.4444L95.1809 45.6382L95.1825 45.6392L95.3089 45.4444ZM96.5797 46.8815L96.3664 46.9734L96.367 46.9747L96.5797 46.8815ZM96.3047 50.0803L96.4911 50.2187L96.4918 50.2178L96.3047 50.0803ZM95.331 50.8965L95.2285 50.6881L95.2285 50.6881L95.331 50.8965ZM94.0762 51.2469L94.0539 51.0158L93.8716 51.0334L93.8462 51.2147L94.0762 51.2469ZM94.0579 51.3776L93.8279 51.3454L93.7974 51.563L94.0131 51.6054L94.0579 51.3776ZM95.362 52.0066L95.2147 52.1862L95.2168 52.1879L95.362 52.0066ZM96.2843 53.2683L96.0694 53.356L96.2843 53.2683ZM95.6941 56.8626L95.8736 57.01L95.8741 57.0094L95.6941 56.8626ZM93.9963 57.9503L93.9275 57.7286L93.9963 57.9503ZM88.6732 55.6258L88.4432 55.5936L88.411 55.8235L88.641 55.8557L88.6732 55.6258ZM93.2515 55.7543L93.3776 55.9493L93.3778 55.9492L93.2515 55.7543ZM93.8787 53.4175L93.6654 53.5094L93.666 53.5107L93.8787 53.4175ZM93.1486 52.5425L93.0142 52.7318L93.016 52.7331L93.1486 52.5425ZM89.2224 51.7059L89.2546 51.476L89.0247 51.4438L88.9924 51.6737L89.2224 51.7059ZM89.4668 49.9616L89.2368 49.9294L89.2046 50.1593L89.4346 50.1916L89.4668 49.9616ZM93.0267 50.2272L93.0925 50.4499L93.0949 50.4492L93.0267 50.2272ZM93.9096 49.6781L93.7378 49.522L93.7373 49.5226L93.9096 49.6781ZM93.9771 47.3428L93.797 47.4895L93.7979 47.4906L93.9771 47.3428ZM89.984 46.2704L90.0162 46.0405L89.7862 46.0082L89.754 46.2382L89.984 46.2704ZM86.1956 57.3437L88.0703 43.9639L87.6103 43.8995L85.7357 57.2792L86.1956 57.3437ZM87.8081 44.1617L92.93 44.8793L92.9944 44.4194L87.8725 43.7017L87.8081 44.1617ZM92.93 44.8793C93.8744 45.0116 94.6207 45.2682 95.1809 45.6382L95.4368 45.2506C94.802 44.8314 93.9838 44.558 92.9944 44.4194L92.93 44.8793ZM95.1825 45.6392C95.7529 46.0093 96.1427 46.4548 96.3665 46.9734L96.7929 46.7895C96.5272 46.1737 96.0698 45.6612 95.4352 45.2496L95.1825 45.6392ZM96.367 46.9747C96.5974 47.5 96.6714 48.0711 96.5842 48.694L97.0441 48.7584C97.1423 48.0572 97.06 47.3985 96.7923 46.7882L96.367 46.9747ZM96.5842 48.694C96.512 49.2092 96.3534 49.622 96.1176 49.9428L96.4918 50.2178C96.7827 49.822 96.9637 49.3321 97.0441 48.7584L96.5842 48.694ZM96.1182 49.9419C95.8769 50.267 95.5809 50.5147 95.2285 50.6881L95.4335 51.1048C95.8538 50.898 96.2069 50.6016 96.4911 50.2187L96.1182 49.9419ZM95.2285 50.6881C94.8685 50.8653 94.4776 50.9748 94.0539 51.0158L94.0985 51.478C94.5752 51.432 95.0208 51.3079 95.4335 51.1048L95.2285 50.6881ZM93.8462 51.2147L93.8279 51.3454L94.2879 51.4098L94.3062 51.2791L93.8462 51.2147ZM94.0131 51.6054C94.4438 51.6901 94.8438 51.8819 95.2147 52.1861L95.5092 51.8271C95.0835 51.4779 94.6141 51.2503 94.1027 51.1497L94.0131 51.6054ZM95.2168 52.1879C95.5867 52.4841 95.8714 52.8714 96.0694 53.356L96.4993 53.1805C96.274 52.6289 95.9438 52.175 95.5071 51.8253L95.2168 52.1879ZM96.0694 53.356C96.2623 53.8285 96.3198 54.3845 96.229 55.0324L96.6889 55.0969C96.7885 54.3859 96.7296 53.7443 96.4993 53.1805L96.0694 53.356ZM96.229 55.0324C96.1374 55.686 95.8983 56.2449 95.5142 56.7158L95.8741 57.0094C96.3157 56.468 96.5864 55.8283 96.6889 55.0969L96.229 55.0324ZM95.5147 56.7152C95.1357 57.1766 94.6109 57.5164 93.9275 57.7286L94.0651 58.1721C94.821 57.9375 95.4281 57.5522 95.8736 57.01L95.5147 56.7152ZM93.9275 57.7286C93.2503 57.9387 92.4153 57.9806 91.4138 57.8403L91.3494 58.3002C92.3949 58.4467 93.3031 58.4086 94.0651 58.1721L93.9275 57.7286ZM91.4138 57.8403L85.9979 57.0815L85.9334 57.5414L91.3494 58.3002L91.4138 57.8403ZM88.641 55.8557L91.2477 56.221L91.3121 55.761L88.7054 55.3958L88.641 55.8557ZM91.2477 56.221C92.1465 56.3469 92.8726 56.2759 93.3776 55.9493L93.1254 55.5593C92.7612 55.7948 92.1728 55.8816 91.3121 55.761L91.2477 56.221ZM93.3778 55.9492C93.8754 55.6268 94.169 55.1585 94.2525 54.5623L93.7926 54.4979C93.7272 54.9644 93.5067 55.3123 93.1252 55.5594L93.3778 55.9492ZM94.2525 54.5623C94.3136 54.1261 94.2611 53.7115 94.0913 53.3242L93.666 53.5107C93.7991 53.8143 93.8425 54.1414 93.7926 54.4979L94.2525 54.5623ZM94.0919 53.3255C93.9226 52.933 93.6499 52.6082 93.2812 52.3518L93.016 52.7331C93.3191 52.9439 93.533 53.2024 93.6654 53.5094L94.0919 53.3255ZM93.283 52.3531C92.9112 52.0893 92.456 51.9245 91.9266 51.8503L91.8622 52.3103C92.3346 52.3765 92.7155 52.5198 93.0142 52.7318L93.283 52.3531ZM91.9266 51.8503L89.2546 51.476L89.1902 51.9359L91.8622 52.3103L91.9266 51.8503ZM88.9924 51.6737L88.4432 55.5936L88.9032 55.658L89.4524 51.7382L88.9924 51.6737ZM89.4346 50.1916L91.8322 50.5275L91.8967 50.0676L89.499 49.7316L89.4346 50.1916ZM91.8322 50.5275C92.2787 50.5901 92.7 50.566 93.0925 50.4499L92.9609 50.0045C92.64 50.0994 92.2864 50.1222 91.8967 50.0676L91.8322 50.5275ZM93.0949 50.4492C93.4889 50.3281 93.8203 50.1237 94.082 49.8337L93.7373 49.5226C93.5364 49.7451 93.2792 49.9067 92.9585 50.0053L93.0949 50.4492ZM94.0815 49.8343C94.353 49.5355 94.5158 49.1645 94.5764 48.7324L94.1165 48.668C94.0672 49.0198 93.9388 49.3008 93.7378 49.522L94.0815 49.8343ZM94.5764 48.7324C94.6576 48.1529 94.5185 47.6344 94.1562 47.1951L93.7979 47.4906C94.0733 47.8245 94.1805 48.2109 94.1165 48.668L94.5764 48.7324ZM94.1571 47.1961C93.7919 46.7479 93.2126 46.4883 92.4661 46.3837L92.4016 46.8436C93.0837 46.9392 93.5332 47.1657 93.797 47.4895L94.1571 47.1961ZM92.4661 46.3837L90.0162 46.0405L89.9517 46.5004L92.4016 46.8436L92.4661 46.3837ZM89.754 46.2382L89.2368 49.9294L89.6968 49.9938L90.2139 46.3026L89.754 46.2382ZM99.8484 58.8169L99.7051 58.9996L99.7064 59.0006L99.8484 58.8169ZM98.4202 56.7916L98.2005 56.8666L98.2006 56.8671L98.4202 56.7916ZM99.1845 51.3365L98.9939 51.204L98.9936 51.2044L99.1845 51.3365ZM101.1 49.7397L101.193 49.9526L101.194 49.9522L101.1 49.7397ZM105.404 49.9763L105.294 50.1813L105.296 50.1823L105.404 49.9763ZM106.739 51.0959L106.555 51.2377L106.556 51.2386L106.739 51.0959ZM107.523 52.8179L107.297 52.8697L107.297 52.8702L107.523 52.8179ZM107.469 55.8679L107.437 56.0978L107.667 56.13L107.699 55.9001L107.469 55.8679ZM99.244 54.7154L99.0141 54.6832L98.9818 54.9132L99.2118 54.9454L99.244 54.7154ZM99.4674 53.1214L99.4996 52.8914L99.2696 52.8592L99.2374 53.0891L99.4674 53.1214ZM105.426 53.9562L105.393 54.1861L105.626 54.2187L105.656 53.9862L105.426 53.9562ZM105.301 52.7064L105.083 52.7867L105.083 52.7878L105.301 52.7064ZM104.615 51.751L104.469 51.9313L104.47 51.9322L104.615 51.751ZM102.146 51.4516L102.241 51.6633L102.243 51.6625L102.146 51.4516ZM101.162 52.2464L100.975 52.1087L100.974 52.1095L101.162 52.2464ZM100.682 53.4381L100.452 53.4036L100.452 53.4059L100.682 53.4381ZM100.597 56.3771L100.377 56.4529L100.377 56.4539L100.597 56.3771ZM101.358 57.4563L101.215 57.6391L101.216 57.6404L101.358 57.4563ZM103.612 57.9587L103.657 58.1867L103.66 58.186L103.612 57.9587ZM104.399 57.6226L104.265 57.4327L104.399 57.6226ZM104.963 56.9755L105.02 56.7506L104.844 56.7053L104.758 56.8656L104.963 56.9755ZM107.136 57.5331L107.352 57.6179L107.448 57.3735L107.194 57.3082L107.136 57.5331ZM106.125 58.9502L105.975 58.7724L105.975 58.7725L106.125 58.9502ZM104.494 59.7476L104.547 59.9736L104.549 59.9733L104.494 59.7476ZM102.399 59.5793C101.426 59.4429 100.626 59.1247 99.9905 58.6332L99.7064 59.0006C100.417 59.5503 101.297 59.8938 102.335 60.0393L102.399 59.5793ZM99.9918 58.6342C99.3599 58.1383 98.9097 57.5008 98.6398 56.7161L98.2006 56.8671C98.4987 57.734 99.0007 58.4467 99.7051 58.9996L99.9918 58.6342ZM98.64 56.7166C98.3706 55.9273 98.3027 55.0251 98.4458 54.0041L97.9858 53.9396C97.8347 55.0179 97.9032 55.9955 98.2005 56.8666L98.64 56.7166ZM98.4458 54.0041C98.5863 53.0012 98.8984 52.1585 99.3755 51.4686L98.9936 51.2044C98.4683 51.9639 98.1346 52.8781 97.9858 53.9396L98.4458 54.0041ZM99.3752 51.469C99.8583 50.7739 100.464 50.2705 101.193 49.9526L101.007 49.5268C100.195 49.8811 99.5232 50.4422 98.9939 51.204L99.3752 51.469ZM101.194 49.9522C101.92 49.6316 102.741 49.5313 103.663 49.6604L103.727 49.2005C102.733 49.0611 101.823 49.1669 101.007 49.5273L101.194 49.9522ZM103.663 49.6604C104.256 49.7435 104.799 49.9175 105.294 50.1812L105.513 49.7713C104.967 49.4806 104.371 49.2907 103.727 49.2005L103.663 49.6604ZM105.296 50.1823C105.792 50.4401 106.211 50.7913 106.555 51.2377L106.923 50.9542C106.538 50.4547 106.067 50.0595 105.511 49.7703L105.296 50.1823ZM106.556 51.2386C106.901 51.6816 107.149 52.2233 107.297 52.8697L107.75 52.7662C107.589 52.0637 107.315 51.4574 106.922 50.9533L106.556 51.2386ZM107.297 52.8702C107.444 53.5058 107.461 54.251 107.341 55.1105L107.801 55.1749C107.927 54.2748 107.912 53.4702 107.75 52.7656L107.297 52.8702ZM107.341 55.1105L107.239 55.8356L107.699 55.9001L107.801 55.1749L107.341 55.1105ZM107.501 55.6379L99.2763 54.4855L99.2118 54.9454L107.437 56.0978L107.501 55.6379ZM99.474 54.7477L99.6973 53.1536L99.2374 53.0891L99.0141 54.6832L99.474 54.7477ZM99.4352 53.3513L105.393 54.1861L105.458 53.7262L99.4996 52.8914L99.4352 53.3513ZM105.656 53.9862C105.719 53.4998 105.675 53.0444 105.518 52.6249L105.083 52.7878C105.211 53.1275 105.25 53.5053 105.195 53.9262L105.656 53.9862ZM105.519 52.626C105.363 52.203 105.109 51.8495 104.761 51.5698L104.47 51.9322C104.752 52.1583 104.956 52.4418 105.083 52.7867L105.519 52.626ZM104.762 51.5707C104.413 51.2881 103.99 51.1159 103.502 51.0474L103.437 51.5073C103.854 51.5658 104.195 51.7093 104.469 51.9313L104.762 51.5707ZM103.502 51.0474C102.979 50.9742 102.492 51.0362 102.049 51.2408L102.243 51.6625C102.597 51.4993 102.993 51.445 103.437 51.5073L103.502 51.0474ZM102.051 51.24C101.616 51.4359 101.257 51.7262 100.975 52.1087L101.349 52.384C101.583 52.0661 101.879 51.8266 102.241 51.6633L102.051 51.24ZM100.974 52.1095C100.698 52.4879 100.525 52.9208 100.452 53.4036L100.912 53.4725C100.974 53.0594 101.12 52.6978 101.35 52.3832L100.974 52.1095ZM100.452 53.4059L100.257 54.7974L100.717 54.8619L100.912 53.4703L100.452 53.4059ZM100.257 54.7974C100.171 55.4087 100.208 55.9628 100.377 56.4529L100.816 56.3013C100.676 55.8953 100.639 55.4178 100.717 54.8619L100.257 54.7974ZM100.377 56.4539C100.547 56.9372 100.826 57.3345 101.215 57.6391L101.501 57.2735C101.186 57.0265 100.957 56.7043 100.816 56.3003L100.377 56.4539ZM101.216 57.6404C101.606 57.9402 102.079 58.1249 102.626 58.2015L102.69 57.7416C102.21 57.6742 101.816 57.5154 101.5 57.2723L101.216 57.6404ZM102.626 58.2015C102.991 58.2527 103.335 58.2491 103.657 58.1867L103.568 57.7308C103.305 57.7819 103.013 57.7868 102.69 57.7416L102.626 58.2015ZM103.66 58.186C103.982 58.1188 104.274 57.9947 104.533 57.8125L104.265 57.4327C104.061 57.5764 103.829 57.6764 103.565 57.7314L103.66 58.186ZM104.533 57.8125C104.796 57.6272 105.007 57.3832 105.167 57.0854L104.758 56.8656C104.63 57.1047 104.465 57.2921 104.265 57.4327L104.533 57.8125ZM104.905 57.2004L107.078 57.7581L107.194 57.3082L105.02 56.7506L104.905 57.2004ZM106.92 57.4484C106.712 57.9773 106.398 58.4174 105.975 58.7724L106.274 59.128C106.758 58.7218 107.117 58.2172 107.352 57.6179L106.92 57.4484ZM105.975 58.7725C105.558 59.1235 105.048 59.3746 104.44 59.5219L104.549 59.9733C105.218 59.8112 105.795 59.5306 106.274 59.1279L105.975 58.7725ZM104.441 59.5216C103.836 59.6642 103.156 59.6854 102.399 59.5793L102.335 60.0393C103.138 60.1517 103.876 60.1318 104.547 59.9736L104.441 59.5216Z" fill="black"/>
<path d="M86.9822 39.7239L91.3387 37.1164L110.344 40.1145L105.63 43.6542L86.9822 39.7239Z" fill="#D75304" stroke="black" stroke-width="0.199618"/>
<g clip-path="url(#clip0_211_11320)">
<path d="M37.5217 23.2821L8.43208 47.5895L52.363 84.5105L81.5452 60.3115L37.5217 23.2821Z" fill="#9724D6" stroke="#0D0D0D" stroke-width="0.194713" stroke-linecap="round" stroke-linejoin="round"/>
<path d="M39.8314 19.5301L9.61964 42.2545L51.5216 81.6395L81.8316 59.0401L39.8314 19.5301Z" fill="#9724D6" stroke="#0D0D0D" stroke-width="0.194713" stroke-linecap="round" stroke-linejoin="round"/>
<path d="M42.3158 15.915L11.0499 36.9583L50.7756 78.7271L82.1449 57.8252L42.3158 15.915Z" fill="#9724D6" stroke="#0D0D0D" stroke-width="0.194713" stroke-linecap="round" stroke-linejoin="round"/>
<path d="M45.23 12.3926L12.9638 31.6157L50.2886 75.7604L82.6616 56.6876L45.23 12.3926Z" fill="#FF8EFF" stroke="#0D0D0D" stroke-width="0.194713" stroke-linecap="round" stroke-linejoin="round"/>
<path d="M46.5201 18.5211L42.1234 17.6746L20.8138 30.3312L20.7559 30.351L19.4967 34.5553L49.2063 69.4847L54.4218 69.8374L54.4552 69.8261L75.4222 57.4914L75.9309 53.7112L46.5201 18.5211Z" fill="#FF8EFF" stroke="#0D0D0D" stroke-width="0.194713" stroke-linecap="round" stroke-linejoin="round"/>
<g style="mix-blend-mode:color-dodge">
<g style="mix-blend-mode:color-dodge">
<g style="mix-blend-mode:color-dodge">
<path d="M54.1225 27.619L54.4572 69.8336L54.4239 69.8449L49.1974 69.4868L37.095 55.243L36.7171 20.8997L42.1255 17.6822L46.5194 18.5204L54.1225 27.619Z" fill="white"/>
</g>
</g>
</g>
<path d="M46.5201 18.5211L42.1234 17.6746L20.8138 30.3312L20.7559 30.351L19.4967 34.5553L49.2063 69.4847L54.4218 69.8374L54.4552 69.8261L75.4222 57.4914L75.9309 53.7112L46.5201 18.5211Z" stroke="#0D0D0D" stroke-width="0.259617" stroke-linecap="round" stroke-linejoin="round"/>
<path d="M43.4511 53.4893L37.7108 44.2401L41.2515 42.0427C41.9199 41.6278 42.5408 41.3885 43.1142 41.3245C43.6887 41.2557 44.198 41.3338 44.642 41.5587C45.089 41.7817 45.4545 42.122 45.7386 42.5797C45.9721 42.956 46.0998 43.323 46.1216 43.6807C46.1415 44.0353 46.0809 44.3711 45.9398 44.688C45.7987 45.005 45.6001 45.293 45.3438 45.5521L45.3999 45.6425C45.7393 45.4569 46.1165 45.3625 46.5316 45.3593C46.9478 45.3512 47.355 45.4529 47.7532 45.6645C48.1514 45.8761 48.4963 46.2168 48.7878 46.6865C49.0849 47.1652 49.2362 47.6677 49.2417 48.1939C49.2453 48.7172 49.082 49.2335 48.7517 49.7429C48.4214 50.2523 47.9025 50.7266 47.195 51.1657L43.4511 53.4893ZM44.2577 51.0494L46.0597 49.9311C46.6678 49.5536 47.034 49.1658 47.158 48.7677C47.2833 48.3647 47.2319 47.9795 47.0039 47.6122C46.8339 47.3382 46.6129 47.1333 46.341 46.9976C46.0673 46.8589 45.7662 46.8039 45.4378 46.8325C45.1076 46.8582 44.7693 46.9784 44.4231 47.1933L42.576 48.3397L44.2577 51.0494ZM41.8276 47.1339L43.485 46.1052C43.7741 45.9258 44.0018 45.7115 44.1682 45.4622C44.3328 45.21 44.4206 44.9449 44.4316 44.667C44.4438 44.3842 44.3658 44.1073 44.1976 43.8363C43.9752 43.478 43.6657 43.2614 43.2689 43.1866C42.8751 43.1098 42.4313 43.2247 41.9375 43.5311L40.244 44.5822L41.8276 47.1339ZM54.8923 46.5762C54.1968 47.0079 53.5064 47.2361 52.8212 47.261C52.1372 47.281 51.4943 47.1087 50.8926 46.7439C50.289 46.3762 49.762 45.8295 49.3117 45.1039C48.8689 44.3903 48.6157 43.68 48.5522 42.9729C48.4898 42.2609 48.6106 41.6021 48.9145 40.9964C49.2165 40.3878 49.6987 39.8779 50.3611 39.4668C50.7886 39.2015 51.235 39.0203 51.7004 38.9234C52.1668 38.8216 52.6348 38.823 53.1044 38.9278C53.577 39.0307 54.0349 39.2511 54.4782 39.5891C54.9196 39.924 55.329 40.3956 55.7065 41.0038L56.0176 41.505L50.3317 45.0339L49.6478 43.9319L53.7666 41.3757C53.5692 41.0644 53.3287 40.828 53.0448 40.6663C52.7591 40.5017 52.4534 40.4224 52.1278 40.4285C51.8051 40.4327 51.4872 40.532 51.1741 40.7264C50.8399 40.9338 50.5968 41.1972 50.4448 41.5168C50.2909 41.8333 50.2245 42.1665 50.2456 42.5162C50.2678 42.8611 50.3736 43.1896 50.563 43.5015L51.1601 44.4635C51.4104 44.8669 51.6991 45.1674 52.026 45.3649C52.3511 45.5593 52.6937 45.6511 53.054 45.6402C53.4123 45.6263 53.7692 45.5091 54.1244 45.2887C54.3623 45.141 54.557 44.9743 54.7086 44.7885C54.8583 44.5996 54.9628 44.3951 55.0221 44.1748C55.0814 43.9545 55.0864 43.7241 55.0372 43.4835L56.6702 42.7078C56.8243 43.171 56.8592 43.6372 56.7751 44.1065C56.6921 44.5709 56.4928 45.0157 56.1771 45.441C55.8595 45.8634 55.4312 46.2418 54.8923 46.5762Z" fill="#CC36CC"/>
<path d="M43.4511 53.4893L43.2921 53.588L43.3908 53.7469L43.5497 53.6483L43.4511 53.4893ZM37.7108 44.2401L37.6121 44.0812L37.4531 44.1798L37.5518 44.3388L37.7108 44.2401ZM43.1142 41.3245L43.1349 41.5105L43.1364 41.5103L43.1142 41.3245ZM44.642 41.5587L44.5574 41.7256L44.5585 41.7261L44.642 41.5587ZM46.1216 43.6807L46.3084 43.6702L46.3083 43.6693L46.1216 43.6807ZM45.9398 44.688L45.7689 44.612L45.9398 44.688ZM45.3438 45.5521L45.2108 45.4206L45.1071 45.5255L45.1848 45.6508L45.3438 45.5521ZM45.3999 45.6425L45.2409 45.7411L45.3343 45.8916L45.4896 45.8066L45.3999 45.6425ZM46.5316 45.3593L46.533 45.5464L46.5352 45.5463L46.5316 45.3593ZM47.7532 45.6645L47.6654 45.8298L47.7532 45.6645ZM49.2417 48.1939L49.4288 48.1926L49.4288 48.192L49.2417 48.1939ZM48.7517 49.7429L48.5947 49.6411L48.7517 49.7429ZM44.2577 51.0494L44.0987 51.1481L44.1974 51.307L44.3564 51.2084L44.2577 51.0494ZM47.158 48.7677L47.3367 48.8233L47.3367 48.8232L47.158 48.7677ZM46.341 46.9976L46.2565 47.1645L46.2575 47.1651L46.341 46.9976ZM45.4378 46.8325L45.4523 47.0191L45.4541 47.0189L45.4378 46.8325ZM42.576 48.3397L42.4773 48.1807L42.3183 48.2794L42.417 48.4383L42.576 48.3397ZM41.8276 47.1339L41.6686 47.2325L41.7673 47.3915L41.9263 47.2928L41.8276 47.1339ZM44.1682 45.4622L44.3239 45.5661L44.3249 45.5645L44.1682 45.4622ZM44.4316 44.667L44.2447 44.6589L44.2447 44.6595L44.4316 44.667ZM43.2689 43.1866L43.2331 43.3702L43.2342 43.3704L43.2689 43.1866ZM40.244 44.5822L40.1453 44.4232L39.9863 44.5219L40.085 44.6809L40.244 44.5822ZM43.61 53.3906L37.8697 44.1415L37.5518 44.3388L43.2921 53.588L43.61 53.3906ZM37.8094 44.3991L41.3501 42.2016L41.1528 41.8837L37.6121 44.0812L37.8094 44.3991ZM41.3501 42.2016C42.003 41.7964 42.5973 41.5704 43.1349 41.5105L43.0934 41.1386C42.4842 41.2065 41.8367 41.4592 41.1528 41.8837L41.3501 42.2016ZM43.1364 41.5103C43.6804 41.4452 44.1515 41.52 44.5574 41.7256L44.7265 41.3918C44.2445 41.1476 43.697 41.0663 43.0919 41.1388L43.1364 41.5103ZM44.5585 41.7261C44.972 41.9324 45.3124 42.2478 45.5796 42.6783L45.8975 42.481C45.5967 41.9963 45.206 41.631 44.7255 41.3912L44.5585 41.7261ZM45.5796 42.6783C45.8006 43.0345 45.9153 43.3718 45.9348 43.692L46.3083 43.6693C46.2843 43.2742 46.1436 42.8776 45.8975 42.481L45.5796 42.6783ZM45.9348 43.6912C45.9531 44.0168 45.8976 44.3229 45.7689 44.612L46.1107 44.7641C46.2642 44.4193 46.3299 44.0538 46.3084 43.6702L45.9348 43.6912ZM45.7689 44.612C45.6374 44.9073 45.452 45.1767 45.2108 45.4206L45.4769 45.6837C45.7482 45.4094 45.96 45.1027 46.1107 44.7641L45.7689 44.612ZM45.1848 45.6508L45.2409 45.7411L45.5588 45.5438L45.5028 45.4535L45.1848 45.6508ZM45.4896 45.8066C45.8 45.6369 46.1465 45.5493 46.533 45.5463L46.5301 45.1722C46.0865 45.1756 45.6786 45.2768 45.3101 45.4783L45.4896 45.8066ZM46.5352 45.5463C46.9169 45.5389 47.2929 45.6318 47.6654 45.8298L47.841 45.4993C47.4171 45.274 46.9786 45.1634 46.5279 45.1722L46.5352 45.5463ZM47.6654 45.8298C48.0285 46.0227 48.3509 46.3372 48.6288 46.7851L48.9468 46.5878C48.6418 46.0963 48.2744 45.7296 47.841 45.4993L47.6654 45.8298ZM48.6288 46.7851C48.9092 47.2369 49.0495 47.7062 49.0546 48.1959L49.4288 48.192C49.4229 47.6291 49.2606 47.0934 48.9468 46.5878L48.6288 46.7851ZM49.0546 48.1952C49.0579 48.6763 48.9084 49.1573 48.5947 49.6411L48.9087 49.8447C49.2556 49.3096 49.4327 48.758 49.4288 48.1926L49.0546 48.1952ZM48.5947 49.6411C48.2839 50.1205 47.7887 50.5771 47.0963 51.0067L47.2937 51.3247C48.0164 50.8761 48.559 50.3842 48.9087 49.8447L48.5947 49.6411ZM47.0963 51.0067L43.3524 53.3303L43.5497 53.6483L47.2937 51.3247L47.0963 51.0067ZM44.3564 51.2084L46.1583 50.09L45.961 49.7721L44.159 50.8904L44.3564 51.2084ZM46.1583 50.09C46.7797 49.7044 47.1925 49.286 47.3367 48.8233L46.9794 48.712C46.8754 49.0456 46.556 49.4028 45.961 49.7721L46.1583 50.09ZM47.3367 48.8232C47.4785 48.3669 47.4187 47.9256 47.1629 47.5135L46.845 47.7108C47.0451 48.0333 47.0881 48.3624 46.9794 48.7122L47.3367 48.8232ZM47.1629 47.5135C46.9757 47.2119 46.7294 46.9824 46.4246 46.8302L46.2575 47.1651C46.4964 47.2843 46.692 47.4644 46.845 47.7108L47.1629 47.5135ZM46.4256 46.8307C46.1184 46.6751 45.782 46.6147 45.4216 46.6461L45.4541 47.0189C45.7504 46.9931 46.0161 47.0428 46.2565 47.1645L46.4256 46.8307ZM45.4233 46.646C45.0571 46.6744 44.6904 46.8072 44.3244 47.0343L44.5218 47.3523C44.8483 47.1496 45.158 47.0419 45.4523 47.0191L45.4233 46.646ZM44.3244 47.0343L42.4773 48.1807L42.6746 48.4987L44.5218 47.3523L44.3244 47.0343ZM42.417 48.4383L44.0987 51.1481L44.4167 50.9507L42.7349 48.241L42.417 48.4383ZM41.9263 47.2928L43.5837 46.2642L43.3864 45.9462L41.7289 46.9749L41.9263 47.2928ZM43.5837 46.2642C43.8924 46.0726 44.1407 45.8404 44.3238 45.5661L44.0126 45.3583C43.8629 45.5826 43.6558 45.779 43.3864 45.9462L43.5837 46.2642ZM44.3249 45.5645C44.5064 45.2863 44.6061 44.9888 44.6186 44.6744L44.2447 44.6595C44.2351 44.9009 44.1592 45.1336 44.0115 45.36L44.3249 45.5645ZM44.6185 44.675C44.6325 44.35 44.542 44.0364 44.3566 43.7376L44.0386 43.935C44.1896 44.1782 44.255 44.4183 44.2447 44.6589L44.6185 44.675ZM44.3566 43.7376C44.1079 43.337 43.7544 43.0878 43.3036 43.0027L43.2342 43.3704C43.5769 43.4351 43.8425 43.619 44.0386 43.935L44.3566 43.7376ZM43.3047 43.0029C42.8474 42.9138 42.3549 43.0519 41.8389 43.3722L42.0362 43.6901C42.5077 43.3975 42.9028 43.3058 43.2331 43.3702L43.3047 43.0029ZM41.8389 43.3722L40.1453 44.4232L40.3426 44.7412L42.0362 43.6901L41.8389 43.3722ZM40.085 44.6809L41.6686 47.2325L41.9866 47.0352L40.4029 44.4836L40.085 44.6809ZM52.8212 47.261L52.8267 47.4481L52.828 47.448L52.8212 47.261ZM50.8926 46.7439L50.7952 46.9037L50.7956 46.9039L50.8926 46.7439ZM48.5522 42.9729L48.3658 42.9892L48.3658 42.9896L48.5522 42.9729ZM48.9145 40.9964L49.0817 41.0804L49.0821 41.0796L48.9145 40.9964ZM51.7004 38.9234L51.7385 39.1066L51.7403 39.1062L51.7004 38.9234ZM53.1044 38.9278L53.0636 39.1104L53.0646 39.1106L53.1044 38.9278ZM54.4782 39.5891L54.3648 39.7379L54.3651 39.7381L54.4782 39.5891ZM56.0176 41.505L56.1163 41.664L56.2752 41.5654L56.1766 41.4064L56.0176 41.505ZM50.3317 45.0339L50.1728 45.1325L50.2714 45.2915L50.4304 45.1928L50.3317 45.0339ZM49.6478 43.9319L49.5492 43.773L49.3902 43.8716L49.4889 44.0306L49.6478 43.9319ZM53.7666 41.3757L53.8653 41.5347L54.0258 41.4351L53.9246 41.2755L53.7666 41.3757ZM53.0448 40.6663L52.9514 40.8284L52.9522 40.8289L53.0448 40.6663ZM52.1278 40.4285L52.1302 40.6156L52.1313 40.6156L52.1278 40.4285ZM50.4448 41.5168L50.6131 41.5986L50.6137 41.5972L50.4448 41.5168ZM50.2456 42.5162L50.0588 42.5275L50.0589 42.5283L50.2456 42.5162ZM50.563 43.5015L50.4031 43.5987L50.4041 43.6002L50.563 43.5015ZM52.026 45.3649L51.9293 45.525L51.93 45.5254L52.026 45.3649ZM53.054 45.6402L53.0596 45.8273L53.0612 45.8272L53.054 45.6402ZM54.7086 44.7885L54.8536 44.9068L54.8552 44.9047L54.7086 44.7885ZM55.0221 44.1748L54.8414 44.1262L55.0221 44.1748ZM55.0372 43.4835L54.9569 43.3145L54.8246 43.3774L54.8539 43.521L55.0372 43.4835ZM56.6702 42.7078L56.8478 42.6487L56.781 42.448L56.5899 42.5388L56.6702 42.7078ZM56.7751 44.1065L56.5909 44.0735L56.5909 44.0736L56.7751 44.1065ZM56.1771 45.441L56.3266 45.5535L56.3273 45.5526L56.1771 45.441ZM54.7936 46.4173C54.1204 46.8351 53.4613 47.0506 52.8144 47.0741L52.828 47.448C53.5515 47.4217 54.2731 47.1807 54.9909 46.7352L54.7936 46.4173ZM52.8158 47.074C52.1688 47.0929 51.5614 46.9305 50.9896 46.5839L50.7956 46.9039C51.4272 47.2868 52.1055 47.4691 52.8267 47.448L52.8158 47.074ZM50.9899 46.5842C50.4161 46.2345 49.9087 45.7111 49.4707 45.0052L49.1527 45.2026C49.6154 45.948 50.1619 46.5178 50.7952 46.9037L50.9899 46.5842ZM49.4707 45.0052C49.0404 44.312 48.799 43.6293 48.7385 42.9562L48.3658 42.9896C48.4324 43.7307 48.6973 44.4687 49.1527 45.2026L49.4707 45.0052ZM48.7386 42.9566C48.679 42.2772 48.7942 41.6533 49.0817 41.0804L48.7473 40.9125C48.4269 41.5509 48.3006 42.2447 48.3658 42.9892L48.7386 42.9566ZM49.0821 41.0796C49.3665 40.5065 49.8225 40.0213 50.4598 39.6258L50.2624 39.3078C49.5749 39.7345 49.0666 40.269 48.7469 40.9133L49.0821 41.0796ZM50.4598 39.6258C50.8698 39.3713 51.2959 39.1988 51.7385 39.1065L51.6622 38.7402C51.1742 38.8419 50.7075 39.0316 50.2624 39.3078L50.4598 39.6258ZM51.7403 39.1062C52.1799 39.0102 52.6204 39.0115 53.0636 39.1104L53.1451 38.7452C52.6492 38.6345 52.1537 38.6329 51.6605 38.7406L51.7403 39.1062ZM53.0646 39.1106C53.5066 39.2069 53.9399 39.414 54.3648 39.7379L54.5916 39.4403C54.1299 39.0883 53.6473 38.8545 53.1442 38.745L53.0646 39.1106ZM54.3651 39.7381C54.7838 40.0558 55.1788 40.5083 55.5475 41.1024L55.8655 40.9051C55.4793 40.2829 55.0554 39.7922 54.5913 39.44L54.3651 39.7381ZM55.5475 41.1024L55.8586 41.6037L56.1766 41.4064L55.8655 40.9051L55.5475 41.1024ZM55.919 41.3461L50.2331 44.8749L50.4304 45.1928L56.1163 41.664L55.919 41.3461ZM50.4907 44.9352L49.8068 43.8333L49.4889 44.0306L50.1728 45.1325L50.4907 44.9352ZM49.7465 44.0909L53.8653 41.5347L53.6679 41.2167L49.5492 43.773L49.7465 44.0909ZM53.9246 41.2755C53.713 40.9418 53.4511 40.6824 53.1374 40.5038L52.9522 40.8289C53.2062 40.9736 53.4255 41.1871 53.6086 41.4759L53.9246 41.2755ZM53.1383 40.5042C52.8235 40.3228 52.4844 40.2347 52.1243 40.2414L52.1313 40.6156C52.4225 40.6101 52.6948 40.6805 52.9514 40.8284L53.1383 40.5042ZM52.1253 40.2414C51.764 40.2462 51.4133 40.3577 51.0754 40.5674L51.2727 40.8853C51.5611 40.7063 51.8462 40.6193 52.1302 40.6156L52.1253 40.2414ZM51.0754 40.5674C50.7143 40.7915 50.4449 41.0809 50.2758 41.4364L50.6137 41.5972C50.7486 41.3136 50.9655 41.076 51.2727 40.8853L51.0754 40.5674ZM50.2765 41.435C50.1087 41.7803 50.0358 42.1455 50.0588 42.5275L50.4323 42.505C50.4132 42.1875 50.4732 41.8863 50.6131 41.5986L50.2765 41.435ZM50.0589 42.5283C50.0831 42.9049 50.1989 43.2624 50.4031 43.5986L50.723 43.4044C50.5483 43.1167 50.4524 42.8173 50.4323 42.5042L50.0589 42.5283ZM50.4041 43.6002L51.0011 44.5621L51.319 44.3648L50.722 43.4029L50.4041 43.6002ZM51.0011 44.5621C51.2634 44.9847 51.5716 45.309 51.9293 45.525L52.1228 45.2047C51.8266 45.0258 51.5575 44.7491 51.319 44.3648L51.0011 44.5621ZM51.93 45.5254C52.284 45.7373 52.6618 45.8393 53.0596 45.8273L53.0483 45.4532C52.7257 45.463 52.4181 45.3814 52.1221 45.2043L51.93 45.5254ZM53.0612 45.8272C53.457 45.8118 53.8449 45.6823 54.2231 45.4476L54.0258 45.1297C53.6934 45.3359 53.3677 45.4408 53.0467 45.4533L53.0612 45.8272ZM54.2231 45.4476C54.4757 45.2909 54.6869 45.111 54.8536 44.9068L54.5636 44.6702C54.4271 44.8376 54.2489 44.9912 54.0258 45.1297L54.2231 45.4476ZM54.8552 44.9047C55.0198 44.697 55.1365 44.4697 55.2028 44.2234L54.8414 44.1262C54.7891 44.3205 54.6968 44.5022 54.562 44.6723L54.8552 44.9047ZM55.2028 44.2234C55.2702 43.9729 55.2751 43.7129 55.2205 43.446L54.8539 43.521C54.8977 43.7353 54.8926 43.9361 54.8414 44.1262L55.2028 44.2234ZM55.1175 43.6525L56.7505 42.8768L56.5899 42.5388L54.9569 43.3145L55.1175 43.6525ZM56.4927 42.7668C56.6371 43.2011 56.6694 43.6357 56.5909 44.0735L56.9593 44.1395C57.049 43.6387 57.0114 43.1409 56.8478 42.6487L56.4927 42.7668ZM56.5909 44.0736C56.5136 44.5062 56.3275 44.9245 56.0268 45.3295L56.3273 45.5526C56.6581 45.1069 56.8706 44.6356 56.9593 44.1394L56.5909 44.0736ZM56.0275 45.3286C55.7263 45.7291 55.3167 46.0926 54.7936 46.4173L54.9909 46.7352C55.5457 46.3909 55.9926 45.9976 56.3266 45.5535L56.0275 45.3286Z" fill="black"/>
<path d="M35.274 42.5057L36.6259 38.6446L49.9366 30.6986L48.8446 35.3206L35.274 42.5057Z" fill="#CC36CC" stroke="black" stroke-width="0.160837"/>
<path d="M83.2393 54.0215C78.4215 54.0626 77.7699 52.3908 76.6713 46.8032L75.0226 37.9043L75.5775 46.9387C76.0711 52.9813 75.0071 54.4938 70.9976 55.5839L65.9646 56.7235L71.0534 56.5381C75.5129 56.4434 76.7544 58.0276 77.8232 63.8221L79.2924 72.7205L78.6192 63.6329C78.1755 57.1798 79.1714 56.084 83.3954 55.0653L88.323 53.9103L83.2393 54.0215Z" fill="white" stroke="#020203" stroke-width="0.259617" stroke-linecap="round" stroke-linejoin="round"/>
<path d="M25.2349 31.8743C21.1937 31.9125 20.6484 30.5144 19.7318 25.84L18.356 18.3958L18.8139 25.9543C19.2231 31.0099 18.3292 32.2763 14.965 33.1918L10.7421 34.1493L15.0111 33.99C18.7519 33.907 19.7921 35.2315 20.6839 40.0788L21.9086 47.523L21.3515 39.9202C20.9848 34.5209 21.8212 33.6031 25.3653 32.7476L29.4997 31.777L25.2349 31.8743Z" fill="white" stroke="#020203" stroke-width="0.259617" stroke-linecap="round" stroke-linejoin="round"/>
</g>
<defs>
<clipPath id="clip0_211_11320">
<rect width="73.9908" height="73.9908" fill="white" transform="translate(0.264648 24.347) rotate(-18.8598)"/>
</clipPath>
</defs>
</svg>
